# Wavefront OBJ exported by MilkShape 3D

v -5.000000 0.250000 -5.000000
v 5.000000 0.250000 5.000000
v 5.000000 0.250000 -5.000000
v -5.000000 0.250000 5.000000
v 0.000000 -0.250000 0.000000
v 5.000000 0.250000 0.000000
v 0.000000 0.000000 -5.000000
v -5.000000 0.250000 0.000000
v 0.000000 0.000000 5.000000
v -2.500000 0.250000 -2.500000
v 0.000000 0.250000 -2.500000
v -2.500000 0.100000 -5.000000
v 2.500000 -0.250000 2.500000
v 0.000000 0.250000 2.500000
v 2.500000 0.250000 5.000000
v 2.500000 0.250000 -5.000000
v 2.500000 0.250000 -2.500000
v 5.000000 -0.250000 -2.500000
v 5.000000 0.000000 2.500000
v 2.500000 0.250000 0.000000
v -2.500000 0.100000 5.000000
v -2.500000 -0.200000 2.500000
v -5.000000 0.000000 2.500000
v -5.000000 -0.250000 -2.500000
v -2.500000 0.250000 0.000000
# 25 vertices

vt 0.000000 0.000000
vt 0.250000 0.250000
vt 0.250000 0.000000
vt 1.000000 1.000000
vt 0.750000 0.750000
vt 0.750000 1.000000
vt 1.000000 0.000000
vt 0.750000 0.000000
vt 1.000000 0.250000
vt 1.000000 0.750000
vt 0.500000 0.500000
vt 0.750000 0.500000
vt 0.500000 0.250000
vt 0.000000 1.000000
vt 0.250000 1.000000
vt 0.000000 0.750000
vt 0.000000 0.250000
vt 0.250000 0.500000
vt 0.500000 0.750000
vt 0.500000 0.000000
vt 0.500000 1.000000
vt 1.000000 0.500000
vt 0.750000 0.250000
vt 0.000000 0.500000
vt 0.250000 0.750000
# 25 texture coordinates

vn -0.067424 0.995444 0.067424
vn -0.022462 0.998711 0.045526
vn 0.033201 0.996774 -0.073070
vn -0.049627 0.987753 -0.147923
vn -0.000711 0.998746 -0.050063
vn 0.031687 0.994663 -0.098196
vn 0.000000 0.980581 0.196116
vn 0.032592 0.997277 0.066160
vn 0.131756 0.991281 0.001243
vn -0.066107 0.995641 0.065792
vn 0.033716 0.998863 0.033716
vn -0.081035 0.990154 0.114138
vn -0.025731 0.999430 0.021866
vn 0.059596 0.993269 -0.099327
vn 0.059497 0.991880 -0.112403
vn 0.073068 0.996531 -0.039831
vn -0.131756 0.991281 -0.001243
vn 0.003075 0.999975 -0.006313
vn 0.021885 0.999136 -0.035324
vn -0.019968 0.997587 -0.066497
vn -0.079282 0.996508 0.026214
vn 0.064907 0.997399 -0.031348
vn 0.048606 0.997611 -0.049092
vn 0.026819 0.999273 0.027114
vn -0.025778 0.998286 0.052547
# 25 normals

g objDuplicate10
s 2
f 1/1/1 10/2/2 12/3/3
f 2/4/4 13/5/5 15/6/6
f 3/7/7 16/8/8 18/9/9
f 2/4/4 19/10/10 13/5/5
f 5/11/11 20/12/12 11/13/13
f 4/14/14 21/15/15 23/16/16
f 1/1/1 24/17/17 10/2/2
f 5/11/11 25/18/18 14/19/19
f 7/20/20 12/3/3 11/13/13
f 5/11/11 11/13/13 10/2/2
f 10/2/2 11/13/13 12/3/3
f 9/21/21 15/6/6 14/19/19
f 5/11/11 14/19/19 13/5/5
f 13/5/5 14/19/19 15/6/6
f 6/22/22 18/9/9 17/23/23
f 7/20/20 17/23/23 16/8/8
f 16/8/8 17/23/23 18/9/9
f 5/11/11 13/5/5 20/12/12
f 6/22/22 20/12/12 19/10/10
f 19/10/10 20/12/12 13/5/5
f 7/20/20 11/13/13 17/23/23
f 6/22/22 17/23/23 20/12/12
f 20/12/12 17/23/23 11/13/13
f 8/24/24 23/16/16 22/25/25
f 9/21/21 22/25/25 21/15/15
f 21/15/15 22/25/25 23/16/16
f 5/11/11 10/2/2 25/18/18
f 8/24/24 25/18/18 24/17/17
f 24/17/17 25/18/18 10/2/2
f 9/21/21 14/19/19 22/25/25
f 8/24/24 22/25/25 25/18/18
f 25/18/18 22/25/25 14/19/19
# 32 triangles in group

# 32 triangles total

