# Max2Obj Version 4.0 Mar 10th, 2001
#
# object objobjDuplicate10 to come ...
#
v  -5.000000 -4.500000 -5.000000
v  5.000000 -4.500000 5.000000
v  5.000000 -4.500000 -5.000000
v  -5.000000 -4.500000 5.000000
# 4 vertices

vt  0.010000 0.990000 0.000000
vt  0.990000 0.010000 0.000000
vt  0.990000 0.990000 0.000000
vt  0.010000 0.010000 0.000000
# 4 texture vertices

vn  0.000000 1.000000 0.000000
vn  0.000000 1.000000 0.000000
vn  0.000000 1.000000 0.000000
vn  0.000000 1.000000 0.000000
# 4 vertex normals

g objobjDuplicate10
s 4
f 1/1/1 2/2/2 3/3/3
f 2/2/2 1/1/1 4/4/4
# 2 faces

g
