# 3ds Max Wavefront OBJ Exporter v0.97b - (c)2007 guruware
# File Created: 24.05.2012 14:49:57

mtllib wall_corner_attached_place.mtl

#
# object Plane002
#

v  -4.9948 -4.7460 -4.9935
v  -4.9948 -4.9960 -4.9941
v  -2.4948 -4.7460 -4.9935
v  -2.4948 -4.9960 -4.9941
v  0.0052 -4.7460 -4.9935
v  0.0052 -4.9960 -4.9941
v  2.5052 -4.7460 -4.9935
v  2.5052 -4.9960 -4.9941
v  5.0052 -4.7460 -4.9935
v  5.0052 -4.9960 -4.9941
v  -4.9948 -4.4960 -4.9929
v  -2.4948 -4.4960 -4.9929
v  0.0052 -4.4960 -4.9929
v  2.5052 -4.4960 -4.9929
v  5.0052 -4.4960 -4.9929
v  -4.9948 -4.2460 -4.9923
v  -2.4948 -4.2460 -4.9923
v  0.0052 -4.2460 -4.9923
v  2.5052 -4.2460 -4.9923
v  5.0052 -4.2460 -4.9923
v  -4.9948 -3.9960 -4.9917
v  -2.4948 -3.9960 -4.9917
v  0.0052 -3.9960 -4.9917
v  2.5052 -3.9960 -4.9917
v  5.0052 -3.9960 -4.9917
v  5.0106 -4.0402 2.5230
v  5.0106 -4.0402 5.0230
v  5.0101 -4.2902 2.5230
v  5.0101 -4.2902 5.0230
v  5.0095 -4.5402 2.5230
v  5.0095 -4.5402 5.0230
v  5.0090 -4.7902 2.5230
v  5.0090 -4.7902 5.0230
v  5.0085 -5.0402 2.5230
v  5.0085 -5.0402 5.0230
v  5.0106 -4.0402 0.0230
v  5.0101 -4.2902 0.0230
v  5.0095 -4.5402 0.0230
v  5.0090 -4.7902 0.0230
v  5.0085 -5.0402 0.0230
v  5.0106 -4.0402 -2.4770
v  5.0101 -4.2902 -2.4770
v  5.0095 -4.5402 -2.4770
v  5.0090 -4.7902 -2.4770
v  5.0085 -5.0402 -2.4770
v  5.0106 -4.0402 -4.9770
v  5.0101 -4.2902 -4.9770
v  5.0095 -4.5402 -4.9770
v  5.0090 -4.7902 -4.9770
v  5.0085 -5.0402 -4.9770
v  -4.5000 4.0002 4.5000
v  -4.5000 -3.9998 4.5000
v  5.0000 -3.9998 4.5000
v  5.0000 4.0002 4.5000
v  -4.5000 4.0005 -5.0000
v  -4.5000 -3.9995 -5.0000
v  -3.5000 -3.9995 3.5000
v  -3.5000 4.0005 -5.0000
v  -3.5000 4.0005 3.5000
v  -3.5000 -3.9995 -5.0000
v  5.0000 4.0005 3.5000
v  5.0000 -3.9995 3.5000
v  5.0000 4.0005 -5.0000
v  -5.5000 4.0002 5.5000
v  -5.5000 4.0005 -5.0000
v  5.0000 4.0002 5.5000
v  -5.7500 5.0005 -5.0000
v  -5.7500 5.0002 5.7500
v  5.0000 5.0005 -5.0000
v  5.0000 5.0002 5.7500
v  -5.0000 -3.9995 -5.0000
v  -5.0000 -3.9998 5.0000
v  5.0000 -3.9995 -5.0000
v  5.0000 -3.9998 5.0000
v  -5.0000 -4.9998 5.0000
v  -5.0000 -4.9995 -5.0000
v  5.0000 -4.9998 5.0000
# 77 vertices

vn 0.0000 -0.0024 1.0000
vn 1.0000 -0.0021 -0.0000
vn 1.0000 -0.0021 0.0000
vn -0.7071 -0.0000 0.7071
vn -0.7071 0.0000 0.7071
vn 0.0000 -0.0000 1.0000
vn -1.0000 0.0000 -0.0000
vn -1.0000 0.0000 0.0000
vn 0.7071 0.0000 -0.7071
vn 1.0000 0.0000 -0.0000
vn -0.0000 -0.0000 -1.0000
vn 0.0000 -1.0000 -0.0000
vn -0.5034 -0.7023 0.5034
vn -0.6154 -0.7882 -0.0000
vn 0.0000 -0.7882 0.6154
vn -0.7882 0.6154 0.0000
vn -0.6311 0.4511 0.6311
vn 0.0000 1.0000 0.0000
vn 0.0000 0.6154 0.7882
vn -0.7071 0.7071 0.0000
vn -0.5774 0.5773 0.5774
vn 0.0000 0.7071 0.7071
vn 0.0000 0.0000 1.0000
# 23 vertex normals

vt 0.0000 0.2500 0.0000
vt 0.0000 0.0000 0.0000
vt 0.2500 0.2500 0.0000
vt 0.2500 0.0000 0.0000
vt 0.5000 0.2500 0.0000
vt 0.5000 0.0000 0.0000
vt 0.7500 0.2500 0.0000
vt 0.7500 0.0000 0.0000
vt 1.0000 0.2500 0.0000
vt 1.0000 0.0000 0.0000
vt 0.0000 0.5000 0.0000
vt 0.2500 0.5000 0.0000
vt 0.5000 0.5000 0.0000
vt 0.7500 0.5000 0.0000
vt 1.0000 0.5000 0.0000
vt 0.0000 0.7500 0.0000
vt 0.2500 0.7500 0.0000
vt 0.5000 0.7500 0.0000
vt 0.7500 0.7500 0.0000
vt 1.0000 0.7500 0.0000
vt 0.0000 1.0000 0.0000
vt 0.2500 1.0000 0.0000
vt 0.5000 1.0000 0.0000
vt 0.7500 1.0000 0.0000
vt 1.0000 1.0000 0.0000
vt 0.7041 0.0100 0.0000
vt 0.9653 0.0100 0.0000
vt 0.9653 0.3201 0.0000
vt 0.7041 0.3201 0.0000
vt 0.3693 0.3448 0.0000
vt 0.6305 0.3448 0.0000
vt 0.6305 0.6550 0.0000
vt 0.3693 0.6550 0.0000
vt 0.6305 0.6717 0.0000
vt 0.3693 0.9492 0.0000
vt 0.3693 0.6717 0.0000
vt 0.6305 0.9492 0.0000
vt 0.6472 0.6223 0.0000
vt 0.6472 0.3448 0.0000
vt 0.9084 0.3448 0.0000
vt 0.9084 0.6223 0.0000
vt 0.3528 0.3693 0.0000
vt 0.0100 0.7121 0.0000
vt 0.0100 0.3693 0.0000
vt 0.3528 0.7121 0.0000
vt 0.0100 0.3610 0.0000
vt 0.0100 0.0100 0.0000
vt 0.3610 0.3610 0.0000
vt 0.3610 0.0100 0.0000
vt 0.6472 0.9900 0.0000
vt 0.6472 0.6390 0.0000
vt 0.6809 0.9818 0.0000
vt 0.6809 0.6390 0.0000
vt 0.7313 0.9900 0.0000
vt 0.6976 0.6390 0.0000
vt 0.7313 0.6472 0.0000
vt 0.6976 0.9900 0.0000
vt 0.3693 0.3365 0.0000
vt 0.3693 0.0100 0.0000
vt 0.6958 0.3365 0.0000
vt 0.6958 0.0100 0.0000
vt 0.7480 0.9655 0.0000
vt 0.7480 0.6390 0.0000
vt 0.7806 0.9655 0.0000
vt 0.7806 0.6390 0.0000
vt 0.8300 0.9655 0.0000
vt 0.7974 0.6390 0.0000
vt 0.8300 0.6390 0.0000
vt 0.7974 0.9655 0.0000
# 69 texture coords

g Plane002
usemtl default
s 1
f 1/1/1 2/2/1 3/3/1 
f 4/4/1 3/3/1 2/2/1 
f 3/3/1 4/4/1 5/5/1 
f 6/6/1 5/5/1 4/4/1 
f 5/5/1 6/6/1 7/7/1 
f 8/8/1 7/7/1 6/6/1 
f 7/7/1 8/8/1 9/9/1 
f 10/10/1 9/9/1 8/8/1 
f 11/11/1 1/1/1 12/12/1 
f 3/3/1 12/12/1 1/1/1 
f 12/12/1 3/3/1 13/13/1 
f 5/5/1 13/13/1 3/3/1 
f 13/13/1 5/5/1 14/14/1 
f 7/7/1 14/14/1 5/5/1 
f 14/14/1 7/7/1 15/15/1 
f 9/9/1 15/15/1 7/7/1 
f 16/16/1 11/11/1 17/17/1 
f 12/12/1 17/17/1 11/11/1 
f 17/17/1 12/12/1 18/18/1 
f 13/13/1 18/18/1 12/12/1 
f 18/18/1 13/13/1 19/19/1 
f 14/14/1 19/19/1 13/13/1 
f 19/19/1 14/14/1 20/20/1 
f 15/15/1 20/20/1 14/14/1 
f 21/21/1 16/16/1 22/22/1 
f 17/17/1 22/22/1 16/16/1 
f 22/22/1 17/17/1 23/23/1 
f 18/18/1 23/23/1 17/17/1 
f 23/23/1 18/18/1 24/24/1 
f 19/19/1 24/24/1 18/18/1 
f 24/24/1 19/19/1 25/25/1 
f 20/20/1 25/25/1 19/19/1 
f 26/1/2 27/2/3 28/3/2 
f 29/4/3 28/3/2 27/2/3 
f 28/3/2 29/4/3 30/5/3 
f 31/6/3 30/5/3 29/4/3 
f 30/5/3 31/6/3 32/7/2 
f 33/8/3 32/7/2 31/6/3 
f 32/7/2 33/8/3 34/9/2 
f 35/10/3 34/9/2 33/8/3 
f 36/11/3 26/1/2 37/12/2 
f 28/3/2 37/12/2 26/1/2 
f 37/12/2 28/3/2 38/13/2 
f 30/5/3 38/13/2 28/3/2 
f 38/13/2 30/5/3 39/14/2 
f 32/7/2 39/14/2 30/5/3 
f 39/14/2 32/7/2 40/15/2 
f 34/9/2 40/15/2 32/7/2 
f 41/16/2 36/11/3 42/17/2 
f 37/12/2 42/17/2 36/11/3 
f 42/17/2 37/12/2 43/18/3 
f 38/13/2 43/18/3 37/12/2 
f 43/18/3 38/13/2 44/19/2 
f 39/14/2 44/19/2 38/13/2 
f 44/19/2 39/14/2 45/20/2 
f 40/15/2 45/20/2 39/14/2 
f 46/21/3 41/16/2 47/22/3 
f 42/17/2 47/22/3 41/16/2 
f 47/22/3 42/17/2 48/23/3 
f 43/18/3 48/23/3 42/17/2 
f 48/23/3 43/18/3 49/24/3 
f 44/19/2 49/24/3 43/18/3 
f 49/24/3 44/19/2 50/25/3 
f 45/20/2 50/25/3 44/19/2 
s 65536
f 51/26/4 52/27/5 53/28/6 
f 53/28/6 54/29/6 51/26/4 
f 55/30/7 56/31/8 52/32/5 
f 55/30/7 52/32/5 51/33/4 
f 57/34/9 58/35/10 59/36/9 
f 57/34/9 60/37/10 58/35/10 
f 59/38/9 61/39/11 62/40/11 
f 62/40/11 57/41/9 59/38/9 
f 63/42/12 64/43/13 65/44/14 
f 64/43/13 63/42/12 66/45/15 
f 67/46/16 68/47/17 69/48/18 
f 70/49/19 69/48/18 68/47/17 
f 68/50/17 67/51/16 64/52/13 
f 64/52/13 67/51/16 65/53/14 
f 66/54/15 68/55/17 64/56/13 
f 68/55/17 66/54/15 70/57/19 
f 71/58/20 72/59/21 73/60/18 
f 74/61/22 73/60/18 72/59/21 
f 72/62/21 71/63/20 75/64/5 
f 75/64/5 71/63/20 76/65/7 
f 77/66/23 72/67/21 75/68/5 
f 72/67/21 77/66/23 74/69/22 
# 86 faces

