# 3ds Max Wavefront OBJ Exporter v0.97b - (c)2007 guruware
# File Created: 29.06.2012 13:35:40

mtllib stairs_june29.mtl

#
# object objobjRegroup03
#

v  -4.00000000 -3.99950004 -3.00000000
v  4.00000000 -3.99950004 -3.00000000
v  4.00000000 -3.99950004 -5.00000000
v  -4.00000000 -3.99979997 -5.00000000
v  4.00000000 3.50049996 -3.00000000
v  4.00000000 12.50020027 13.00000000
v  -4.00000000 12.50020027 13.00000000
v  -4.00000000 3.50049996 -3.00000000
v  4.00000000 12.50049973 15.00000000
v  -4.00000000 12.50020027 15.00000000
v  4.00000000 3.50049996 -5.00000000
v  -4.00000000 3.50020003 -5.00000000
v  -4.00000000 5.00019979 13.00000000
v  -4.00000000 5.00019979 15.00000000
v  4.00000000 5.00019979 13.00000000
v  4.00000000 5.00050020 15.00000000
v  -4.00000000 -2.19950008 -0.71429998
v  4.00000000 -2.20000005 0.42860001
v  4.00000000 -2.19950008 -0.71429998
v  -4.00000000 -2.20000005 0.42860001
v  -4.00000000 -2.79999995 -0.71429998
v  4.00000000 -2.79999995 -0.71429998
v  -4.00000000 -1.59949994 1.57140005
v  4.00000000 -1.00000000 1.57140005
v  4.00000000 -1.59949994 1.57140005
v  -4.00000000 -1.00000000 1.57140005
v  4.00000000 -1.60000002 0.42860001
v  -4.00000000 -1.60000002 0.42860001
v  -4.00000000 -0.39950001 2.71429992
v  4.00000000 -0.40000001 3.85710001
v  4.00000000 -0.39950001 2.71429992
v  -4.00000000 -0.40000001 3.85710001
v  4.00000000 -1.00000000 2.71429992
v  -4.00000000 -1.00000000 2.71429992
v  4.00000000 0.20000000 3.85710001
v  -4.00000000 0.20000000 3.85710001
v  4.00000000 0.20050000 5.00000000
v  -4.00000000 0.20050000 5.00000000
v  -4.00000000 0.80049998 5.00000000
v  4.00000000 0.80000001 6.14289999
v  4.00000000 0.80049998 5.00000000
v  -4.00000000 0.80000001 6.14289999
v  -4.00000000 1.40050006 7.28569984
v  4.00000000 2.00000000 7.28569984
v  4.00000000 1.40050006 7.28569984
v  -4.00000000 2.00000000 7.28569984
v  4.00000000 1.39999998 6.14289999
v  -4.00000000 1.39999998 6.14289999
v  -4.00000000 2.60050011 8.42860031
v  4.00000000 2.59999990 9.57139969
v  4.00000000 2.60050011 8.42860031
v  -4.00000000 2.59999990 9.57139969
v  4.00000000 2.00000000 8.42860031
v  -4.00000000 2.00000000 8.42860031
v  4.00000000 3.20000005 9.57139969
v  -4.00000000 3.20000005 9.57139969
v  4.00000000 3.20050001 10.71430016
v  -4.00000000 3.20050001 10.71430016
v  -4.00000000 3.80049992 10.71430016
v  4.00000000 3.79999995 11.85709953
v  4.00000000 3.80049992 10.71430016
v  -4.00000000 3.79999995 11.85709953
v  -4.00000000 4.40049982 13.00000000
v  4.00000000 4.40049982 13.00000000
v  4.00000000 4.40000010 11.85709953
v  -4.00000000 4.40000010 11.85709953
v  4.00000000 -3.40000010 -3.00000000
v  -4.00000000 -3.40000010 -3.00000000
v  -4.00000000 -2.79999995 -1.85710001
v  4.00000000 -2.79999995 -1.85710001
v  4.00000000 -3.40000010 -1.85710001
v  -4.00000000 -3.40000010 -1.85710001
v  -5.00000000 14.00020027 15.00000000
v  -5.00000000 -3.99979997 15.00000000
v  -5.00000000 -3.99979997 -5.00000000
v  -5.00000000 5.00019979 -5.00000000
v  -5.00000000 5.00019979 -3.00000000
v  -5.00000000 14.00020027 13.00000000
v  5.00000000 14.00049973 15.00000000
v  5.00000000 -3.99950004 15.00000000
v  5.00000000 14.00049973 13.00000000
v  5.00000000 5.00050020 -3.00000000
v  5.00000000 5.00050020 -5.00000000
v  5.00000000 -3.99950004 -5.00000000
v  -4.00000000 -3.99979997 13.00000000
v  4.00000000 -3.99979997 13.00000000
v  5.00000000 -3.99999976 15.00000000
v  5.00000000 -4.89999962 15.00000000
v  5.00000000 -4.89999962 -5.00000000
v  5.00000000 -3.99999976 -5.00000000
v  -5.00000000 -4.89999962 15.00000000
v  -5.00000000 -3.99999976 15.00000000
v  -5.00000000 -3.99999976 -5.00000000
v  -5.00000000 -4.89999962 -5.00000000
v  -5.03662348 5.15034103 -2.96066523
v  4.96337652 5.15034103 -2.96066523
v  4.96337652 14.01396942 12.70573425
v  -5.03662348 14.01396942 12.70573425
v  -5.01000023 5.00000000 -5.00000000
v  -5.01000023 5.00000000 13.00000000
v  -5.01000023 14.00000000 -5.00000000
v  -5.01000023 14.00000000 13.00000000
v  5.01000023 14.00000000 -5.00000000
v  5.01000023 14.00000000 13.00000000
v  5.01000023 5.00000000 -5.00000000
v  5.01000023 5.00000000 13.00000000
v  -4.99948883 5.00000000 -4.88513851
v  -4.99948883 14.00000000 -4.88513851
v  5.00051117 5.00000000 -4.88513851
v  5.00051117 14.00000000 -4.88513851
v  -4.00000000 5.00000000 13.00000000
v  -4.00000000 5.00000000 14.00000000
v  4.00000000 5.00000000 13.00000000
v  4.00000000 5.00000000 14.00000000
v  -4.00000000 5.50000000 14.00000000
v  4.00000000 5.50000000 14.00000000
v  -4.00000000 5.50000000 15.00000000
v  4.00000000 5.50000000 15.00000000
v  -4.00000000 6.00000000 15.00000000
v  4.00000000 6.00000000 15.00000000
# 120 vertices

vn 0.81650001 0.40820000 -0.40830001
vn -0.81650001 0.40820000 -0.40820000
vn -0.57730001 0.57730001 -0.57740003
vn 0.57730001 0.57730001 -0.57740003
vn -0.76880002 -0.61860001 0.16200000
vn -0.65429997 -0.73159999 0.19170000
vn 0.65429997 -0.73159999 0.19159999
vn 0.76880002 -0.61860001 0.16210000
vn -0.30149999 -0.30149999 0.90460002
vn 0.30149999 -0.30149999 0.90450001
vn -0.30149999 -0.30149999 -0.90450001
vn 0.30160001 -0.30149999 -0.90450001
vn 0.90450001 0.30149999 -0.30149999
vn 0.30149999 0.30149999 0.90450001
vn -0.90450001 0.30149999 -0.30160001
vn -0.30160001 0.30149999 0.90450001
vn 0.00000000 0.70730001 -0.70690000
vn 0.00000000 0.70709997 -0.70709997
vn 0.00000000 0.70690000 -0.70730001
vn -0.57740003 0.57730001 0.57740003
vn -0.70709997 0.00000000 0.70709997
vn -0.70709997 0.00000000 -0.70709997
vn -0.57740003 0.57730001 -0.57740003
vn -0.76880002 0.61860001 -0.16200000
vn -0.65429997 0.73159999 -0.19159999
vn 0.57730001 0.57740003 0.57730001
vn 0.70709997 0.00000000 0.70709997
vn 0.65429997 0.73159999 -0.19159999
vn 0.76880002 0.61860001 -0.16200000
vn 0.57730001 0.57740003 -0.57730001
vn 0.70709997 0.00000000 -0.70709997
vn 1.00000000 0.00000000 -0.00000000
vn -1.00000000 0.00000000 -0.00000000
vn 0.00000000 0.00000000 1.00000000
vn 0.00000000 0.00000000 -1.00000000
vn 0.00000000 -0.87035555 0.49242380
vn 0.00000000 1.00000000 -0.00000000
# 37 vertex normals

vt 0.44544181 0.98915660 0.00000000
vt 0.32778853 0.98915660 0.00000000
vt 0.32778853 0.95974326 0.00000000
vt 0.44544181 0.95974326 0.00000000
vt 0.67499036 0.29837519 0.00000000
vt 0.91029692 0.29837519 0.00000000
vt 0.91029692 0.41602847 0.00000000
vt 0.67499036 0.41602847 0.00000000
vt 0.93971026 0.29837519 0.00000000
vt 0.93971026 0.41602847 0.00000000
vt 0.64557707 0.29837519 0.00000000
vt 0.64557707 0.41602847 0.00000000
vt 0.03941332 0.71910590 0.00000000
vt 0.03941332 0.82940590 0.00000000
vt 0.01000000 0.82941031 0.00000000
vt 0.01000000 0.71911031 0.00000000
vt 0.27471983 0.69705039 0.00000000
vt 0.27471983 0.58675039 0.00000000
vt 0.30413315 0.58675039 0.00000000
vt 0.30413315 0.69705039 0.00000000
vt 0.62192172 0.25265986 0.00000000
vt 0.59250838 0.25265986 0.00000000
vt 0.59250838 0.14235993 0.00000000
vt 0.62192172 0.14235993 0.00000000
vt 0.35720184 0.12030435 0.00000000
vt 0.35720184 0.01000440 0.00000000
vt 0.32778853 0.01000000 0.00000000
vt 0.32778853 0.12029994 0.00000000
vt 0.84869134 0.66200781 0.00000000
vt 0.73103803 0.67881602 0.00000000
vt 0.73103803 0.66200781 0.00000000
vt 0.84869134 0.67881602 0.00000000
vt 0.73103803 0.83269221 0.00000000
vt 0.84869134 0.82386082 0.00000000
vt 0.84869134 0.83269221 0.00000000
vt 0.73103803 0.82386082 0.00000000
vt 0.73103803 0.97645611 0.00000000
vt 0.84869134 0.96763945 0.00000000
vt 0.84869134 0.97645611 0.00000000
vt 0.73103803 0.96763945 0.00000000
vt 0.73103803 0.91150904 0.00000000
vt 0.84869134 0.90268505 0.00000000
vt 0.84869134 0.91150904 0.00000000
vt 0.73103803 0.90268505 0.00000000
vt 0.87234676 0.71927822 0.00000000
vt 0.99000001 0.70247138 0.00000000
vt 0.99000001 0.71927822 0.00000000
vt 0.87234676 0.70247138 0.00000000
vt 0.99000001 0.66200781 0.00000000
vt 0.87234676 0.67881453 0.00000000
vt 0.87234676 0.66200781 0.00000000
vt 0.99000001 0.67881453 0.00000000
vt 0.84869134 0.70247138 0.00000000
vt 0.73103803 0.71927965 0.00000000
vt 0.73103803 0.70247138 0.00000000
vt 0.84869134 0.71927965 0.00000000
vt 0.78688574 0.59575117 0.00000000
vt 0.90453899 0.58691972 0.00000000
vt 0.90453899 0.59575117 0.00000000
vt 0.78688574 0.58691972 0.00000000
vt 0.58972937 0.94398838 0.00000000
vt 0.70738268 0.93516439 0.00000000
vt 0.70738268 0.94398838 0.00000000
vt 0.58972937 0.93516439 0.00000000
vt 0.58972937 0.71927965 0.00000000
vt 0.70738268 0.70247138 0.00000000
vt 0.70738268 0.71927965 0.00000000
vt 0.58972937 0.70247138 0.00000000
vt 0.90453899 0.54645616 0.00000000
vt 0.78688574 0.56326437 0.00000000
vt 0.78688574 0.54645616 0.00000000
vt 0.90453899 0.56326437 0.00000000
vt 0.87234676 0.87314701 0.00000000
vt 0.99000001 0.86432302 0.00000000
vt 0.99000001 0.87314701 0.00000000
vt 0.87234676 0.86432302 0.00000000
vt 0.87234676 0.91150171 0.00000000
vt 0.99000001 0.90268505 0.00000000
vt 0.99000001 0.91150171 0.00000000
vt 0.87234676 0.90268505 0.00000000
vt 0.87234676 0.83268476 0.00000000
vt 0.99000001 0.82386082 0.00000000
vt 0.99000001 0.83268476 0.00000000
vt 0.87234676 0.82386082 0.00000000
vt 0.73103803 0.75974184 0.00000000
vt 0.84869134 0.74293506 0.00000000
vt 0.84869134 0.75974184 0.00000000
vt 0.73103803 0.74293506 0.00000000
vt 0.84869134 0.78339869 0.00000000
vt 0.73103803 0.80020541 0.00000000
vt 0.73103803 0.78339869 0.00000000
vt 0.84869134 0.80020541 0.00000000
vt 0.90453899 0.50599253 0.00000000
vt 0.78688574 0.52280074 0.00000000
vt 0.78688574 0.50599253 0.00000000
vt 0.90453899 0.52280074 0.00000000
vt 0.64557707 0.27122119 0.00000000
vt 0.76323032 0.26238984 0.00000000
vt 0.76323032 0.27122119 0.00000000
vt 0.64557707 0.26238984 0.00000000
vt 0.58972937 0.91150904 0.00000000
vt 0.70738268 0.90268505 0.00000000
vt 0.70738268 0.91150904 0.00000000
vt 0.58972937 0.90268505 0.00000000
vt 0.81629902 0.24230672 0.00000000
vt 0.93395227 0.22549848 0.00000000
vt 0.93395227 0.24230672 0.00000000
vt 0.81629902 0.22549848 0.00000000
vt 0.70738268 0.82386082 0.00000000
vt 0.58972937 0.84066761 0.00000000
vt 0.58972937 0.82386082 0.00000000
vt 0.70738268 0.84066761 0.00000000
vt 0.58972937 0.97646785 0.00000000
vt 0.70738268 0.96764386 0.00000000
vt 0.70738268 0.97646785 0.00000000
vt 0.58972937 0.96764386 0.00000000
vt 0.73103803 0.94398403 0.00000000
vt 0.84869134 0.93516439 0.00000000
vt 0.84869134 0.94398403 0.00000000
vt 0.73103803 0.93516439 0.00000000
vt 0.73103803 0.87314701 0.00000000
vt 0.84869134 0.86432302 0.00000000
vt 0.84869134 0.87314701 0.00000000
vt 0.73103803 0.86432302 0.00000000
vt 0.58972937 0.67881602 0.00000000
vt 0.70738268 0.66200781 0.00000000
vt 0.70738268 0.67881602 0.00000000
vt 0.58972937 0.66200781 0.00000000
vt 0.87234676 0.94398111 0.00000000
vt 0.99000001 0.93516439 0.00000000
vt 0.99000001 0.94398111 0.00000000
vt 0.87234676 0.93516439 0.00000000
vt 0.70738268 0.78339869 0.00000000
vt 0.58972937 0.80020541 0.00000000
vt 0.58972937 0.78339869 0.00000000
vt 0.70738268 0.80020541 0.00000000
vt 0.70738268 0.74293506 0.00000000
vt 0.58972937 0.75974327 0.00000000
vt 0.58972937 0.74293506 0.00000000
vt 0.70738268 0.75974327 0.00000000
vt 0.87234676 0.79222262 0.00000000
vt 0.99000001 0.78339869 0.00000000
vt 0.99000001 0.79222262 0.00000000
vt 0.87234676 0.78339869 0.00000000
vt 0.77793700 0.14235993 0.00000000
vt 0.88823694 0.14235993 0.00000000
vt 0.91029692 0.15706658 0.00000000
vt 0.88824129 0.02470666 0.00000000
vt 0.77794135 0.02470666 0.00000000
vt 0.64557707 0.15706658 0.00000000
vt 0.34249517 0.93608785 0.00000000
vt 0.32778853 0.93608785 0.00000000
vt 0.32778853 0.80372792 0.00000000
vt 0.34249517 0.82578790 0.00000000
vt 0.46014845 0.82578355 0.00000000
vt 0.27471983 0.14235993 0.00000000
vt 0.30413315 0.14235993 0.00000000
vt 0.30413315 0.27471983 0.00000000
vt 0.01000000 0.27471983 0.00000000
vt 0.03941332 0.01000000 0.00000000
vt 0.01000000 0.01000000 0.00000000
vt 0.91030127 0.01000000 0.00000000
vt 0.64558142 0.01000000 0.00000000
vt 0.32778853 0.44544181 0.00000000
vt 0.32778853 0.29837519 0.00000000
vt 0.35720184 0.29837519 0.00000000
vt 0.35720184 0.44544181 0.00000000
vt 0.59250838 0.29837918 0.00000000
vt 0.59250838 0.44544578 0.00000000
vt 0.46014845 0.93608350 0.00000000
vt 0.47485512 0.80372357 0.00000000
vt 0.47485512 0.93608350 0.00000000
vt 0.62192172 0.29837918 0.00000000
vt 0.62192172 0.44544578 0.00000000
vt 0.03941332 0.43073511 0.00000000
vt 0.01000000 0.56309509 0.00000000
vt 0.01000000 0.43073511 0.00000000
vt 0.30413315 0.56309509 0.00000000
vt 0.27471983 0.29837519 0.00000000
vt 0.30413315 0.29837519 0.00000000
vt 0.27471983 0.82941031 0.00000000
vt 0.35720184 0.25266427 0.00000000
vt 0.88386261 0.62511647 0.00000000
vt 0.88386261 0.63835245 0.00000000
vt 0.58972937 0.63835245 0.00000000
vt 0.58972937 0.62511647 0.00000000
vt 0.93395227 0.48233712 0.00000000
vt 0.78688574 0.48233712 0.00000000
vt 0.78688574 0.46910113 0.00000000
vt 0.93395227 0.46910113 0.00000000
vt 0.64557707 0.20184310 0.00000000
vt 0.64557707 0.18860711 0.00000000
vt 0.93971026 0.18860711 0.00000000
vt 0.93971026 0.20184310 0.00000000
vt 0.64557707 0.22549848 0.00000000
vt 0.79264361 0.22549848 0.00000000
vt 0.79264361 0.23873448 0.00000000
vt 0.64557707 0.23873448 0.00000000
vt 0.32778853 0.77218306 0.00000000
vt 0.32778853 0.62511647 0.00000000
vt 0.55818897 0.62511647 0.00000000
vt 0.55818897 0.77218306 0.00000000
vt 0.27471983 0.98542559 0.00000000
vt 0.01000000 0.98542559 0.00000000
vt 0.27471983 0.85306561 0.00000000
vt 0.01000000 0.85306561 0.00000000
vt 0.32778853 0.46910116 0.00000000
vt 0.59250838 0.46910116 0.00000000
vt 0.32778853 0.60146111 0.00000000
vt 0.59250838 0.60146111 0.00000000
vt 0.61616367 0.60146111 0.00000000
vt 0.61616367 0.46910116 0.00000000
vt 0.76323032 0.60146111 0.00000000
vt 0.76323032 0.46910116 0.00000000
vt 0.70738268 0.86432302 0.00000000
vt 0.70738268 0.87902963 0.00000000
vt 0.58972937 0.86432302 0.00000000
vt 0.58972937 0.87902963 0.00000000
vt 0.87234676 0.97499275 0.00000000
vt 0.87234676 0.96763945 0.00000000
vt 0.99000001 0.97499275 0.00000000
vt 0.99000001 0.96763945 0.00000000
vt 0.99000001 0.74293506 0.00000000
vt 0.99000001 0.75764173 0.00000000
vt 0.87234676 0.74293506 0.00000000
vt 0.87234676 0.75764173 0.00000000
vt 0.81629902 0.27331543 0.00000000
vt 0.81629902 0.26596209 0.00000000
vt 0.93395227 0.27331543 0.00000000
vt 0.93395227 0.26596209 0.00000000
# 230 texture coords

g objobjRegroup03
usemtl 07___Default
s 2
f 1/1/1 2/2/2 3/3/3 
f 3/3/3 4/4/4 1/1/1 
f 5/5/5 6/6/6 7/7/7 
f 7/7/7 8/8/8 5/5/5 
f 6/6/6 9/9/9 10/10/10 
f 10/10/10 7/7/7 6/6/6 
f 11/11/11 5/5/5 8/8/8 
f 8/8/8 12/12/12 11/11/11 
f 8/13/8 1/14/1 4/15/4 
f 4/15/4 12/16/12 8/13/8 
f 1/14/1 8/13/8 13/17/13 
f 13/17/13 8/13/8 7/18/7 
f 7/18/7 10/19/10 13/17/13 
f 13/17/13 10/19/10 14/20/14 
f 3/21/3 2/22/2 5/23/5 
f 5/23/5 11/24/11 3/21/3 
f 2/22/2 15/25/15 5/23/5 
f 5/23/5 15/25/15 6/26/6 
f 6/26/6 15/25/15 9/27/9 
f 9/27/9 15/25/15 16/28/16 
f 17/29/17 18/30/17 19/31/17 
f 18/30/17 17/29/17 20/32/17 
f 21/33/18 19/34/17 22/35/18 
f 19/34/17 21/33/18 17/36/17 
f 23/37/19 24/38/18 25/39/19 
f 24/38/18 23/37/19 26/40/18 
f 20/41/17 27/42/19 18/43/17 
f 27/42/19 20/41/17 28/44/19 
f 28/45/19 25/46/19 27/47/19 
f 25/46/19 28/45/19 23/48/19 
f 29/49/17 30/50/17 31/51/17 
f 30/50/17 29/49/17 32/52/17 
f 26/53/18 33/54/18 24/55/18 
f 33/54/18 26/53/18 34/56/18 
f 34/57/18 31/58/17 33/59/18 
f 31/58/17 34/57/18 29/60/17 
f 32/61/17 35/62/19 30/63/17 
f 35/62/19 32/61/17 36/64/19 
f 36/65/19 37/66/19 35/67/19 
f 37/66/19 36/65/19 38/68/19 
f 39/69/17 40/70/17 41/71/17 
f 40/70/17 39/69/17 42/72/17 
f 38/73/19 41/74/17 37/75/19 
f 41/74/17 38/73/19 39/76/17 
f 43/77/19 44/78/18 45/79/19 
f 44/78/18 43/77/19 46/80/18 
f 42/81/17 47/82/19 40/83/17 
f 47/82/19 42/81/17 48/84/19 
f 48/85/19 45/86/19 47/87/19 
f 45/86/19 48/85/19 43/88/19 
f 49/89/17 50/90/17 51/91/17 
f 50/90/17 49/89/17 52/92/17 
f 46/93/18 53/94/18 44/95/18 
f 53/94/18 46/93/18 54/96/18 
f 54/97/18 51/98/17 53/99/18 
f 51/98/17 54/97/18 49/100/17 
f 52/101/17 55/102/19 50/103/17 
f 55/102/19 52/101/17 56/104/19 
f 56/105/19 57/106/19 55/107/19 
f 57/106/19 56/105/19 58/108/19 
f 59/109/17 60/110/17 61/111/17 
f 60/110/17 59/109/17 62/112/17 
f 58/113/19 61/114/17 57/115/19 
f 61/114/17 58/113/19 59/116/17 
f 63/117/19 15/118/15 64/119/19 
f 15/118/15 63/117/19 13/120/13 
f 62/121/17 65/122/19 60/123/17 
f 65/122/19 62/121/17 66/124/19 
f 66/125/19 64/126/19 65/127/19 
f 64/126/19 66/125/19 63/128/19 
f 1/129/1 67/130/18 2/131/2 
f 67/130/18 1/129/1 68/132/18 
f 69/133/18 22/134/18 70/135/18 
f 22/134/18 69/133/18 21/136/18 
f 68/137/18 71/138/18 67/139/18 
f 71/138/18 68/137/18 72/140/18 
f 72/141/18 70/142/18 71/143/18 
f 70/142/18 72/141/18 69/144/18 
f 14/145/14 10/146/10 73/147/20 
f 73/147/20 10/146/10 9/148/9 
f 16/149/16 14/145/14 74/150/21 
f 4/151/4 75/152/22 76/153/23 
f 76/153/23 12/154/12 4/151/4 
f 11/155/11 12/154/12 76/153/23 
f 77/156/24 76/157/23 75/158/22 
f 74/150/21 14/145/14 73/147/20 
f 77/156/24 74/159/21 78/160/25 
f 78/160/25 74/159/21 73/161/20 
f 75/158/22 74/159/21 77/156/24 
f 79/162/26 9/148/9 16/149/16 
f 9/148/9 79/162/26 73/147/20 
f 74/150/21 80/163/27 16/149/16 
f 73/164/20 79/165/26 81/166/28 
f 81/166/28 78/167/25 73/164/20 
f 78/167/25 81/166/28 82/168/29 
f 78/167/25 82/168/29 77/169/24 
f 3/170/3 11/155/11 83/171/30 
f 3/170/3 83/171/30 84/172/31 
f 76/153/23 83/171/30 11/155/11 
f 77/169/24 82/168/29 83/173/30 
f 83/173/30 76/174/23 77/169/24 
f 82/175/29 84/176/31 83/177/30 
f 16/149/16 80/163/27 79/162/26 
f 80/178/27 84/176/31 82/175/29 
f 80/178/27 82/175/29 81/179/28 
f 81/179/28 79/180/26 80/178/27 
f 1/14/1 13/17/13 85/181/32 
f 86/182/33 15/25/15 2/22/2 
s 1
f 87/183/32 88/184/32 89/185/32 
f 89/185/32 90/186/32 87/183/32 
f 91/187/34 88/188/34 87/189/34 
f 87/189/34 92/190/34 91/187/34 
f 91/191/33 92/192/33 93/193/33 
f 93/193/33 94/194/33 91/191/33 
f 93/195/35 90/196/35 89/197/35 
f 89/197/35 94/198/35 93/195/35 
f 95/199/36 96/200/36 97/201/36 
f 97/201/36 98/202/36 95/199/36 
f 99/203/33 100/204/33 101/205/33 
f 102/206/33 101/205/33 100/204/33 
f 103/207/32 104/208/32 105/209/32 
f 106/210/32 105/209/32 104/208/32 
f 107/211/35 108/212/35 109/213/35 
f 110/214/35 109/213/35 108/212/35 
f 111/215/37 112/216/37 113/217/37 
f 114/218/37 113/217/37 112/216/37 
f 112/219/35 115/220/35 114/221/35 
f 116/222/35 114/221/35 115/220/35 
f 115/223/37 117/224/37 116/225/37 
f 118/226/37 116/225/37 117/224/37 
f 117/227/35 119/228/35 118/229/35 
f 120/230/35 118/229/35 119/228/35 
# 132 faces

