# 3ds Max Wavefront OBJ Exporter v0.97b - (c)2007 guruware
# File Created: 26.07.2012 11:56:50

mtllib 74.mtl

#
# object Pyramid001
#

v  5.00 45.01 5.00
v  -70.00 -4.99 80.00
v  80.00 -4.99 80.00
v  80.00 -4.99 -70.00
v  -70.00 -4.99 -70.00
v  5.00 -4.99 5.00
# 6 vertices

vn 0.00 0.83 0.55
vn 0.55 0.83 -0.00
vn 0.00 0.83 -0.55
vn -0.55 0.83 -0.00
vn 0.00 -1.00 -0.00
# 5 vertex normals

vt 0.50 1.00 0.00
vt 0.00 0.00 0.00
vt 1.00 0.00 0.00
vt 0.00 1.00 0.00
vt 0.50 0.50 0.00
vt 1.00 1.00 0.00
# 6 texture coords

g Pyramid001
usemtl wire_196088225
s 4
f 1/1/1 2/2/1 3/3/1 
s 2
f 1/1/2 3/2/2 4/3/2 
s 16
f 1/1/3 4/2/3 5/3/3 
s 32
f 1/1/4 5/2/4 2/3/4 
s 8
f 2/4/5 6/5/5 3/6/5 
f 3/6/5 6/5/5 4/3/5 
f 4/3/5 6/5/5 5/2/5 
f 5/2/5 6/5/5 2/4/5 
# 8 faces

