# 3ds Max Wavefront OBJ Exporter v0.97b - (c)2007 guruware
# File Created: 04.07.2012 13:21:18

mtllib 81.mtl

#
# object objobjRegroup03
#

v  4.00000000 3.50049996 -3.00000000
v  4.00000000 12.50020027 13.00000000
v  -4.00000000 12.50020027 13.00000000
v  -4.00000000 3.50049996 -3.00000000
v  4.00000000 12.50049973 15.00000000
v  -4.00000000 12.50020027 15.00000000
v  4.00000000 3.50049996 -5.00000000
v  -4.00000000 3.50020003 -5.00000000
v  -4.00000000 -3.99950004 -3.00000000
v  -4.00000000 -3.99979997 -5.00000000
v  -4.00000000 4.55566216 13.68719864
v  -4.00000000 5.00019979 15.00000000
v  4.00000000 -3.99950004 -5.00000000
v  4.00000000 -3.99950004 -3.00000000
v  4.00000000 4.68254900 13.67363548
v  4.00000000 5.00050020 15.00000000
v  -5.00000000 14.00020027 15.00000000
v  -5.00000000 -3.99979997 15.00000000
v  -5.00000000 -3.99979997 -5.00000000
v  -5.00000000 5.00019979 -5.00000000
v  -5.00000000 5.00019979 -3.00000000
v  -5.00000000 14.00020027 13.00000000
v  5.00000000 14.00049973 15.00000000
v  5.00000000 -3.99950004 15.00000000
v  5.00000000 14.00049973 13.00000000
v  5.00000000 5.00050020 -3.00000000
v  5.00000000 5.00050020 -5.00000000
v  5.00000000 -3.99950004 -5.00000000
v  -4.00000000 -3.99979997 13.00000000
v  4.00000000 -3.99979997 13.00000000
v  -4.00000000 5.71407366 14.99400902
v  4.00000000 5.71407366 14.99400902
v  4.00000000 -4.31974840 -4.99947309
v  -4.00000000 -4.31974840 -4.99947309
v  -5.00000000 -4.89999962 15.00000000
v  5.00000000 -4.89999962 15.00000000
v  5.00000000 -3.99999976 15.00000000
v  -5.00000000 -3.99999976 15.00000000
v  5.00000000 -4.89999962 -5.00000000
v  5.00000000 -3.99999976 -5.00000000
v  -5.00000000 -3.99999976 -5.00000000
v  -5.00000000 -4.89999962 -5.00000000
v  4.00000000 -3.99999976 -5.00000000
v  4.00000000 -4.89999962 -5.00000000
v  -4.00000000 -3.99999976 -5.00000000
v  -4.00000000 -4.89999962 -5.00000000
v  -4.00000000 -3.99999976 15.00000000
v  -4.00000000 -4.89999962 15.00000000
v  4.00000000 -4.89999962 15.00000000
v  4.00000000 -3.99999976 15.00000000
v  -5.03662348 5.15034103 -2.96066523
v  4.96337652 5.15034103 -2.96066523
v  4.96337652 14.01396942 12.70573425
v  -5.03662348 14.01396942 12.70573425
v  5.01000023 14.00000000 13.00000000
v  5.01000023 5.00000000 13.00000000
v  5.01000023 5.00000000 -5.00000000
v  5.01000023 14.00000000 -5.00000000
v  -4.99948883 14.00000000 -4.88513851
v  5.00051117 14.00000000 -4.88513851
v  5.00051117 5.00000000 -4.88513851
v  -4.99948883 5.00000000 -4.88513851
v  -5.01000023 5.00000000 13.00000000
v  -5.01000023 14.00000000 13.00000000
v  -5.01000023 14.00000000 -5.00000000
v  -5.01000023 5.00000000 -5.00000000
# 66 vertices

vn -0.76880002 -0.61860001 0.16200000
vn -0.65429997 -0.73159999 0.19170000
vn 0.65429997 -0.73159999 0.19159999
vn 0.76880002 -0.61860001 0.16210000
vn -0.30149999 -0.30149999 0.90460002
vn 0.30149999 -0.30149999 0.90450001
vn -0.30149999 -0.30149999 -0.90450001
vn 0.30160001 -0.30149999 -0.90450001
vn 0.81650001 0.40820000 -0.40830001
vn 0.57730001 0.57730001 -0.57740003
vn 0.90450001 0.30149999 -0.30149999
vn 0.30149999 0.30149999 0.90450001
vn -0.57730001 0.57730001 -0.57740003
vn -0.81650001 0.40820000 -0.40820000
vn -0.90450001 0.30149999 -0.30160001
vn -0.30160001 0.30149999 0.90450001
vn -0.57740003 0.57730001 0.57740003
vn -0.70709997 0.00000000 0.70709997
vn -0.70709997 0.00000000 -0.70709997
vn -0.57740003 0.57730001 -0.57740003
vn -0.76880002 0.61860001 -0.16200000
vn -0.65429997 0.73159999 -0.19159999
vn 0.57730001 0.57740003 0.57730001
vn 0.70709997 0.00000000 0.70709997
vn 0.65429997 0.73159999 -0.19159999
vn 0.76880002 0.61860001 -0.16200000
vn 0.57730001 0.57740003 -0.57730001
vn 0.70709997 0.00000000 -0.70709997
vn 1.00000000 0.00000000 -0.00000000
vn -1.00000000 0.00000000 -0.00000000
vn 0.00000000 0.89376318 -0.44853923
vn 0.00000000 0.00000000 1.00000000
vn 0.00000000 0.00000000 -1.00000000
vn 0.00000000 -0.87035555 0.49242380
# 34 vertex normals

vt 0.37592614 0.66625148 0.00000000
vt 0.62407392 0.66625148 0.00000000
vt 0.62407392 0.79032534 0.00000000
vt 0.37592614 0.79032534 0.00000000
vt 0.65509242 0.66625148 0.00000000
vt 0.65509242 0.79032534 0.00000000
vt 0.34490764 0.66625148 0.00000000
vt 0.34490764 0.79032534 0.00000000
vt 0.04101847 0.75735682 0.00000000
vt 0.04101847 0.87367606 0.00000000
vt 0.01000000 0.87368077 0.00000000
vt 0.01000000 0.75736153 0.00000000
vt 0.29982418 0.74099207 0.00000000
vt 0.28916627 0.61777836 0.00000000
vt 0.32018474 0.61777836 0.00000000
vt 0.32018474 0.73409766 0.00000000
vt 0.65509242 0.26590240 0.00000000
vt 0.62407392 0.26590240 0.00000000
vt 0.62407392 0.14958315 0.00000000
vt 0.65509242 0.14958315 0.00000000
vt 0.36547855 0.13125046 0.00000000
vt 0.37592614 0.01000464 0.00000000
vt 0.34490764 0.01000000 0.00000000
vt 0.34490764 0.12631927 0.00000000
vt 0.81939846 0.14958315 0.00000000
vt 0.93571770 0.14958315 0.00000000
vt 0.95898157 0.16509238 0.00000000
vt 0.93572229 0.02550924 0.00000000
vt 0.81940305 0.02550924 0.00000000
vt 0.67981529 0.16509238 0.00000000
vt 0.63635463 0.96287698 0.00000000
vt 0.62084544 0.96287698 0.00000000
vt 0.62084544 0.82329386 0.00000000
vt 0.63635463 0.84655768 0.00000000
vt 0.76042855 0.84655309 0.00000000
vt 0.28916627 0.14958315 0.00000000
vt 0.32018474 0.14958315 0.00000000
vt 0.32018474 0.28916627 0.00000000
vt 0.01000000 0.28916627 0.00000000
vt 0.04101847 0.01000000 0.00000000
vt 0.01000000 0.01000000 0.00000000
vt 0.95898622 0.01000000 0.00000000
vt 0.67981988 0.01000000 0.00000000
vt 0.34490764 0.46898153 0.00000000
vt 0.34490764 0.31388918 0.00000000
vt 0.37592614 0.31388918 0.00000000
vt 0.37592614 0.46898153 0.00000000
vt 0.62407392 0.31388918 0.00000000
vt 0.62407392 0.46898153 0.00000000
vt 0.76042855 0.96287233 0.00000000
vt 0.77593780 0.82328922 0.00000000
vt 0.77593780 0.96287233 0.00000000
vt 0.65509242 0.31388918 0.00000000
vt 0.65509242 0.46898153 0.00000000
vt 0.04101847 0.45347229 0.00000000
vt 0.01000000 0.59305549 0.00000000
vt 0.01000000 0.45347229 0.00000000
vt 0.32018474 0.59305549 0.00000000
vt 0.28916627 0.31388918 0.00000000
vt 0.32018474 0.31388918 0.00000000
vt 0.28916627 0.87368077 0.00000000
vt 0.37592614 0.26590705 0.00000000
vt 0.64879680 0.62601936 0.00000000
vt 0.64879680 0.50194544 0.00000000
vt 0.95888048 0.50194544 0.00000000
vt 0.95888048 0.62601936 0.00000000
vt 0.84314871 0.68020982 0.00000000
vt 0.68805629 0.68020982 0.00000000
vt 0.68805629 0.66625148 0.00000000
vt 0.84314871 0.66625148 0.00000000
vt 0.99000001 0.23673749 0.00000000
vt 0.99000001 0.25069579 0.00000000
vt 0.67981529 0.25069579 0.00000000
vt 0.67981529 0.23673749 0.00000000
vt 0.01000000 0.91236198 0.00000000
vt 0.01000000 0.89840364 0.00000000
vt 0.32018474 0.89840364 0.00000000
vt 0.32018474 0.91236198 0.00000000
vt 0.68805629 0.70493269 0.00000000
vt 0.70356554 0.70493269 0.00000000
vt 0.70356554 0.71889102 0.00000000
vt 0.68805629 0.71889102 0.00000000
vt 0.01000000 0.97576612 0.00000000
vt 0.02550924 0.97576612 0.00000000
vt 0.02550924 0.98972440 0.00000000
vt 0.01000000 0.98972440 0.00000000
vt 0.99000001 0.19805625 0.00000000
vt 0.99000001 0.21201456 0.00000000
vt 0.67981529 0.21201456 0.00000000
vt 0.67981529 0.19805625 0.00000000
vt 0.01000000 0.95104319 0.00000000
vt 0.01000000 0.93708485 0.00000000
vt 0.32018474 0.93708485 0.00000000
vt 0.32018474 0.95104319 0.00000000
vt 0.34490764 0.97838163 0.00000000
vt 0.34490764 0.82328922 0.00000000
vt 0.58788157 0.82328922 0.00000000
vt 0.58788157 0.97838163 0.00000000
vt 0.96722257 0.31388918 0.00000000
vt 0.96722257 0.45347229 0.00000000
vt 0.68805629 0.45347229 0.00000000
vt 0.68805629 0.31388918 0.00000000
vt 0.80066073 0.82328922 0.00000000
vt 0.95575309 0.82328922 0.00000000
vt 0.95575309 0.96287233 0.00000000
vt 0.80066073 0.96287233 0.00000000
vt 0.34490764 0.64152861 0.00000000
vt 0.34490764 0.50194544 0.00000000
vt 0.62407392 0.50194544 0.00000000
vt 0.62407392 0.64152861 0.00000000
# 110 texture coords

g objobjRegroup03
usemtl 07___Default
s 2
f 1/1/1 2/2/2 3/3/3 
f 3/3/3 4/4/4 1/1/1 
f 2/2/2 5/5/5 6/6/6 
f 6/6/6 3/3/3 2/2/2 
f 7/7/7 1/1/1 4/4/4 
f 4/4/4 8/8/8 7/7/7 
f 4/9/4 9/10/9 10/11/10 
f 10/11/10 8/12/8 4/9/4 
f 9/10/9 4/9/4 11/13/11 
f 11/13/11 4/9/4 3/14/3 
f 3/14/3 6/15/6 11/13/11 
f 11/13/11 6/15/6 12/16/12 
f 13/17/13 14/18/14 1/19/1 
f 1/19/1 7/20/7 13/17/13 
f 14/18/14 15/21/15 1/19/1 
f 1/19/1 15/21/15 2/22/2 
f 2/22/2 15/21/15 5/23/5 
f 5/23/5 15/21/15 16/24/16 
f 12/25/12 6/26/6 17/27/17 
f 17/27/17 6/26/6 5/28/5 
f 16/29/16 12/25/12 18/30/18 
f 10/31/10 19/32/19 20/33/20 
f 20/33/20 8/34/8 10/31/10 
f 7/35/7 8/34/8 20/33/20 
f 21/36/21 20/37/20 19/38/19 
f 18/30/18 12/25/12 17/27/17 
f 21/36/21 18/39/18 22/40/22 
f 22/40/22 18/39/18 17/41/17 
f 19/38/19 18/39/18 21/36/21 
f 23/42/23 5/28/5 16/29/16 
f 5/28/5 23/42/23 17/27/17 
f 18/30/18 24/43/24 16/29/16 
f 17/44/17 23/45/23 25/46/25 
f 25/46/25 22/47/22 17/44/17 
f 22/47/22 25/46/25 26/48/26 
f 22/47/22 26/48/26 21/49/21 
f 13/50/13 7/35/7 27/51/27 
f 13/50/13 27/51/27 28/52/28 
f 20/33/20 27/51/27 7/35/7 
f 21/49/21 26/48/26 27/53/27 
f 27/53/27 20/54/20 21/49/21 
f 26/55/26 28/56/28 27/57/27 
f 16/29/16 24/43/24 23/42/23 
f 24/58/24 28/56/28 26/55/26 
f 24/58/24 26/55/26 25/59/25 
f 25/59/25 23/60/23 24/58/24 
f 9/10/9 11/13/11 29/61/29 
f 30/62/30 15/21/15 14/18/14 
s 1
f 31/63/31 32/64/31 33/65/31 
f 33/65/31 34/66/31 31/63/31 
f 35/67/32 36/68/32 37/69/32 
f 37/69/32 38/70/32 35/67/32 
f 37/71/29 36/72/29 39/73/29 
f 39/73/29 40/74/29 37/71/29 
f 35/75/30 38/76/30 41/77/30 
f 41/77/30 42/78/30 35/75/30 
f 43/79/33 40/80/33 39/81/33 
f 39/81/33 44/82/33 43/79/33 
f 41/83/33 45/84/33 46/85/33 
f 46/85/33 42/86/33 41/83/33 
f 47/87/29 48/88/29 46/89/29 
f 46/89/29 45/90/29 47/87/29 
f 49/91/30 50/92/30 43/93/30 
f 43/93/30 44/94/30 49/91/30 
f 51/95/34 52/96/34 53/97/34 
f 53/97/34 54/98/34 51/95/34 
f 55/99/29 56/100/29 57/101/29 
f 57/101/29 58/102/29 55/99/29 
f 59/103/33 60/104/33 61/105/33 
f 61/105/33 62/106/33 59/103/33 
f 63/107/30 64/108/30 65/109/30 
f 65/109/30 66/110/30 63/107/30 
# 72 faces

