# 3ds Max Wavefront OBJ Exporter v0.97b - (c)2007 guruware
# File Created: 01.08.2012 14:12:47

mtllib 85.mtl

#
# object Plane001
#

v  -5.00000 -4.00000 -5.00000
v  -5.00000 -4.00000 5.00000
v  5.00000 -4.00000 -5.00000
v  5.00000 -4.00000 5.00000
v  -5.00000 -5.00000 5.00000
v  5.00000 -5.00000 5.00000
v  -5.00000 -4.00000 4.50000
v  -5.00000 -4.00000 3.50000
v  -3.00000 -4.00000 3.50000
v  -3.00000 -4.00000 4.50000
v  -5.00000 4.00000 4.50000
v  -3.00000 4.00000 4.50000
v  -3.00000 4.00000 3.50000
v  -5.00000 4.00000 3.50000
v  -3.00000 3.00000 4.50000
v  -3.00000 3.00000 3.50000
v  5.00000 3.00000 3.50000
v  5.00000 3.00000 4.50000
v  5.00000 4.00000 4.50000
v  5.00000 4.00000 3.50000
v  -5.00000 4.01000 5.00000
v  -5.00000 4.01000 -5.00000
v  5.00000 4.01000 5.00000
v  5.00000 4.01000 -5.00000
v  -5.00000 5.00000 -5.00000
v  -5.00000 5.00000 5.00000
v  5.00000 5.00000 -5.00000
v  5.00000 5.00000 5.00000
# 28 vertices

vn 0.00000 1.00000 -0.00000
vn 0.00000 0.00000 1.00000
vn 0.00000 -1.00000 -0.00000
vn 1.00000 0.00000 -0.00000
vn 0.00000 0.00000 -1.00000
vn -1.00000 0.00000 -0.00000
# 6 vertex normals

vt 0.42312 0.41506 0.00000
vt 0.42312 0.01000 0.00000
vt 0.82818 0.41506 0.00000
vt 0.82818 0.01000 0.00000
vt 0.82818 0.53637 0.00000
vt 0.82818 0.57688 0.00000
vt 0.42312 0.53637 0.00000
vt 0.42312 0.57688 0.00000
vt 0.91725 0.01000 0.00000
vt 0.91725 0.05051 0.00000
vt 0.83624 0.05051 0.00000
vt 0.83624 0.01000 0.00000
vt 0.86042 0.46363 0.00000
vt 0.77941 0.46363 0.00000
vt 0.77941 0.42312 0.00000
vt 0.86042 0.42312 0.00000
vt 0.42312 0.50413 0.00000
vt 0.42312 0.42312 0.00000
vt 0.74717 0.42312 0.00000
vt 0.74717 0.50413 0.00000
vt 0.42312 0.97307 0.00000
vt 0.42312 0.93256 0.00000
vt 0.74717 0.93256 0.00000
vt 0.74717 0.97307 0.00000
vt 0.01000 0.91725 0.00000
vt 0.01000 0.83624 0.00000
vt 0.33405 0.83624 0.00000
vt 0.33405 0.91725 0.00000
vt 0.42312 0.83563 0.00000
vt 0.42312 0.79512 0.00000
vt 0.74717 0.79512 0.00000
vt 0.74717 0.83563 0.00000
vt 0.74717 0.86787 0.00000
vt 0.74717 0.90838 0.00000
vt 0.42312 0.90838 0.00000
vt 0.42312 0.86787 0.00000
vt 0.74717 0.77094 0.00000
vt 0.42312 0.77094 0.00000
vt 0.42312 0.73044 0.00000
vt 0.74717 0.73044 0.00000
vt 0.74717 0.64157 0.00000
vt 0.42312 0.64157 0.00000
vt 0.42312 0.60106 0.00000
vt 0.74717 0.60106 0.00000
vt 0.01000 0.94949 0.00000
vt 0.05051 0.94949 0.00000
vt 0.05051 0.99000 0.00000
vt 0.01000 0.99000 0.00000
vt 0.74717 0.70626 0.00000
vt 0.42312 0.70626 0.00000
vt 0.42312 0.66575 0.00000
vt 0.74717 0.66575 0.00000
vt 0.36629 0.83624 0.00000
vt 0.40680 0.83624 0.00000
vt 0.40680 0.87675 0.00000
vt 0.36629 0.87675 0.00000
vt 0.01000 0.82818 0.00000
vt 0.01000 0.42312 0.00000
vt 0.41506 0.82818 0.00000
vt 0.41506 0.42312 0.00000
vt 0.01000 0.41506 0.00000
vt 0.01000 0.01000 0.00000
vt 0.41506 0.41506 0.00000
vt 0.41506 0.01000 0.00000
# 64 texture coords

g Plane001
usemtl wire_148177026
s 1
f 1/1/1 2/2/1 3/3/1 
f 4/4/1 3/3/1 2/2/1 
usemtl wire_008110134
f 2/5/2 5/6/2 4/7/2 
f 6/8/2 4/7/2 5/6/2 
usemtl wire_088177026
s 2
f 7/9/3 8/10/3 9/11/3 
f 9/11/3 10/12/3 7/9/3 
s 4
f 11/13/1 12/14/1 13/15/1 
f 13/15/1 14/16/1 11/13/1 
s 8
f 7/17/2 10/18/2 12/19/2 
f 12/19/2 11/20/2 7/17/2 
s 16
f 10/21/4 9/22/4 13/23/4 
f 13/23/4 12/24/4 10/21/4 
s 32
f 9/25/5 8/26/5 14/27/5 
f 14/27/5 13/28/5 9/25/5 
s 64
f 8/29/6 7/30/6 11/31/6 
f 11/31/6 14/32/6 8/29/6 
s 2
f 15/33/3 16/34/3 17/35/3 
f 17/35/3 18/36/3 15/33/3 
s 4
f 12/37/1 19/38/1 20/39/1 
f 20/39/1 13/40/1 12/37/1 
s 8
f 15/41/2 18/42/2 19/43/2 
f 19/43/2 12/44/2 15/41/2 
s 16
f 18/45/4 17/46/4 20/47/4 
f 20/47/4 19/48/4 18/45/4 
s 32
f 17/49/5 16/50/5 13/51/5 
f 13/51/5 20/52/5 17/49/5 
s 64
f 16/53/6 15/54/6 12/55/6 
f 12/55/6 13/56/6 16/53/6 
usemtl wire_228214153
s 1
f 21/57/3 22/58/3 23/59/3 
f 24/60/3 23/59/3 22/58/3 
usemtl wire_225088199
f 25/61/1 26/62/1 27/63/1 
f 28/64/1 27/63/1 26/62/1 
# 32 faces

