# 3ds Max Wavefront OBJ Exporter v0.97b - (c)2007 guruware
# File Created: 02.08.2012 14:12:10

mtllib 88.mtl

#
# object Plane002
#

v  -4.50000 4.00050 -5.00000
v  -4.50000 -3.99950 -5.00000
v  -4.50000 -3.99980 4.50000
v  -4.50000 4.00020 4.50000
v  -3.50000 -3.99950 3.50000
v  -3.50000 4.00050 -5.00000
v  -3.50000 4.00050 3.50000
v  -3.50000 -3.99950 -5.00000
v  5.00000 4.00050 3.50000
v  5.00000 -3.99950 3.50000
v  5.00000 4.01015 -5.00000
v  -5.00000 4.00985 5.50000
v  -5.00000 4.01015 -5.00000
v  5.00000 4.00985 5.50000
v  -5.00000 5.00050 -5.00000
v  -5.00000 5.00020 5.50000
v  5.00000 5.00050 -5.00000
v  5.00000 5.00020 5.50000
v  -5.00000 -3.99950 -5.00000
v  -5.00000 -3.99980 5.00000
v  5.00000 -3.99950 -5.00000
v  5.00000 -3.99980 5.00000
v  -5.00000 -4.99980 5.00000
v  -5.00000 -4.99950 -5.00000
v  5.00000 -4.99980 5.00000
v  5.00000 -4.00000 5.00000
v  5.00000 -5.00000 5.00000
v  5.00000 -5.00000 -5.00000
v  5.00000 -4.00000 -5.00000
v  -5.00000 -4.05862 4.50242
v  5.08000 -4.05862 4.50242
v  5.08000 3.94138 4.50242
v  -5.00000 3.94138 4.50242
# 33 vertices

vn -1.00000 0.00000 -0.00000
vn -0.70710 0.00000 0.70710
vn 0.70710 0.00000 -0.70710
vn 1.00000 0.00000 -0.00000
vn 0.00000 0.00000 -1.00000
vn 0.00000 -1.00000 -0.00000
vn -0.50340 -0.70230 0.50340
vn -0.61540 -0.78820 -0.00000
vn 0.00000 -0.78820 0.61540
vn -0.78820 0.61540 -0.00000
vn -0.63110 0.45110 0.63110
vn 0.00000 1.00000 -0.00000
vn 0.00000 0.61540 0.78820
vn -0.70710 0.70710 -0.00000
vn -0.57740 0.57730 0.57740
vn 0.00000 0.70710 0.70710
vn 0.00000 0.00000 1.00000
# 17 vertex normals

vt 0.70211 0.01000 0.00000
vt 0.96549 0.01000 0.00000
vt 0.96550 0.32277 0.00000
vt 0.70212 0.32277 0.00000
vt 0.90806 0.34764 0.00000
vt 0.64467 0.62748 0.00000
vt 0.64467 0.34764 0.00000
vt 0.90806 0.62748 0.00000
vt 0.36447 0.97617 0.00000
vt 0.36447 0.69633 0.00000
vt 0.62785 0.69633 0.00000
vt 0.62785 0.97617 0.00000
vt 0.01000 0.72662 0.00000
vt 0.33923 0.38093 0.00000
vt 0.33923 0.72662 0.00000
vt 0.01000 0.38093 0.00000
vt 0.33923 0.01000 0.00000
vt 0.33923 0.35569 0.00000
vt 0.01000 0.01000 0.00000
vt 0.01000 0.35569 0.00000
vt 0.64468 0.99000 0.00000
vt 0.64467 0.64431 0.00000
vt 0.67729 0.99000 0.00000
vt 0.67728 0.64431 0.00000
vt 0.87597 0.97354 0.00000
vt 0.84337 0.64431 0.00000
vt 0.87597 0.64431 0.00000
vt 0.84337 0.97354 0.00000
vt 0.36447 0.33923 0.00000
vt 0.36447 0.01000 0.00000
vt 0.69369 0.33923 0.00000
vt 0.69369 0.01000 0.00000
vt 0.69412 0.97354 0.00000
vt 0.69411 0.64431 0.00000
vt 0.72705 0.97354 0.00000
vt 0.72704 0.64431 0.00000
vt 0.77680 0.97354 0.00000
vt 0.74387 0.64431 0.00000
vt 0.77680 0.64431 0.00000
vt 0.74387 0.97354 0.00000
vt 0.79362 0.64431 0.00000
vt 0.82654 0.64431 0.00000
vt 0.82654 0.97354 0.00000
vt 0.79362 0.97354 0.00000
vt 0.62785 0.34764 0.00000
vt 0.62785 0.67950 0.00000
vt 0.36447 0.67950 0.00000
vt 0.36447 0.34764 0.00000
# 48 texture coords

g Plane002
usemtl default
s 65536
f 1/1/1 2/2/1 3/3/2 
f 1/1/1 3/3/2 4/4/2 
f 5/5/3 6/6/4 7/7/3 
f 5/5/3 8/8/4 6/6/4 
f 7/9/3 9/10/5 10/11/5 
f 10/11/5 5/12/3 7/9/3 
f 11/13/6 12/14/7 13/15/8 
f 12/14/7 11/13/6 14/16/9 
f 15/17/10 16/18/11 17/19/12 
f 18/20/13 17/19/12 16/18/11 
f 16/21/11 15/22/10 12/23/7 
f 12/23/7 15/22/10 13/24/8 
f 14/25/9 16/26/11 12/27/7 
f 16/26/11 14/25/9 18/28/13 
f 19/29/14 20/30/15 21/31/12 
f 22/32/16 21/31/12 20/30/15 
f 20/33/15 19/34/14 23/35/2 
f 23/35/2 19/34/14 24/36/1 
f 25/37/17 20/38/15 23/39/2 
f 20/38/15 25/37/17 22/40/16 
s 1
f 26/41/4 27/42/4 28/43/4 
f 28/43/4 29/44/4 26/41/4 
f 30/45/17 31/46/17 32/47/17 
f 32/47/17 33/48/17 30/45/17 
# 24 faces

