# Max2Obj Version 4.0 Mar 10th, 2001
#
# object objobjobjDuplicate06 to come ...
#
v  -4.999999 -4.500000 -5.000001
v  5.000001 -4.500001 4.999999
v  5.000001 -4.499466 -5.000001
v  -4.999999 -4.000001 4.999999
v  5.000001 -4.000001 4.999999
v  -0.991668 -4.000000 -1.008331
v  -5.016662 -4.000000 -1.008331
v  5.000001 -4.000000 -5.000001
v  -0.991668 -4.000000 -5.033334
v  -5.016662 -5.000000 -1.008331
v  -4.999999 -5.000001 4.999999
v  -4.710280 -5.000000 -2.548634
v  -4.710280 -4.000000 -2.548634
v  -3.837768 -5.000000 -3.854435
v  -3.837768 -4.000000 -3.854435
v  -2.531966 -5.000000 -4.726949
v  -2.531966 -4.000000 -4.726950
v  -0.991668 -5.000000 -5.033334
v  5.000001 -5.000000 -5.000001
v  -4.999999 -4.499804 4.999999
# 20 vertices

vt  0.010000 0.990000 0.000000
vt  0.485555 0.514445 0.000000
vt  0.485555 0.990000 0.000000
vt  0.010000 0.485555 0.000000
vt  0.515238 0.010000 0.000000
vt  0.800967 0.010000 0.000000
vt  0.800967 0.057555 0.000000
vt  0.515238 0.057556 0.000000
vt  0.874217 0.057555 0.000000
vt  0.874217 0.010000 0.000000
vt  0.936315 0.057555 0.000000
vt  0.936315 0.010000 0.000000
vt  0.912863 0.514445 0.000000
vt  0.627927 0.514445 0.000000
vt  0.492579 0.562001 0.000000
vt  0.492579 0.514445 0.000000
vt  0.554677 0.562001 0.000000
vt  0.554677 0.514445 0.000000
vt  0.627927 0.562001 0.000000
vt  0.912863 0.562001 0.000000
vt  0.010000 0.514445 0.000000
vt  0.010000 0.010000 0.000000
vt  0.295729 0.294937 0.000000
vt  0.295729 0.486347 0.000000
vt  0.485555 0.010000 0.000000
vt  0.487140 0.294937 0.000000
vt  0.368979 0.471777 0.000000
vt  0.431077 0.430284 0.000000
vt  0.472570 0.368186 0.000000
# 29 texture vertices

vn  -0.000017 1.000000 0.000017
vn  -0.000017 1.000000 0.000017
vn  -0.000053 1.000000 0.000054
vn  -0.706480 0.707730 0.001959
vn  0.000000 1.000000 0.000000
vn  0.000000 1.000000 0.000000
vn  -0.724755 0.685404 -0.070367
vn  0.003927 0.708356 -0.705845
vn  -0.069383 0.685110 -0.725127
vn  -0.995320 0.000000 -0.096636
vn  -0.999996 0.000000 0.002773
vn  -0.923880 0.000000 -0.382683
vn  -0.689402 0.665718 -0.285559
vn  -0.707107 0.000000 -0.707106
vn  -0.527645 0.665719 -0.527644
vn  -0.382685 -0.000001 -0.923879
vn  -0.285561 0.665718 -0.689401
vn  -0.095248 -0.000000 -0.995454
vn  0.005563 0.000000 -0.999985
vn  0.000020 1.000000 -0.000020
# 20 vertex normals

g objobjobjDuplicate06
s 16
f 1/1/1 2/2/2 3/3/3
f 4/4/4 5/22/5 6/23/6
f 6/23/6 7/24/7 4/4/4
f 6/23/6 5/22/5 8/25/8
f 8/25/8 9/26/9 6/23/6
f 4/5/4 7/6/7 10/7/10
f 10/7/10 11/8/11 4/5/4
f 7/6/7 12/9/12 10/7/10
f 7/6/7 13/10/13 12/9/12
f 13/10/13 14/11/14 12/9/12
f 13/10/13 15/12/15 14/11/14
f 15/16/15 16/17/16 14/15/14
f 16/17/16 15/16/15 17/18/17
f 17/18/17 18/19/18 16/17/16
f 17/18/17 9/14/9 18/19/18
f 9/14/9 19/20/19 18/19/18
f 9/14/9 8/13/8 19/20/19
f 17/29/17 6/23/6 9/26/9
f 17/29/17 15/28/15 6/23/6
f 6/23/6 15/28/15 13/27/13
f 13/27/13 7/24/7 6/23/6
f 2/2/2 1/1/1 20/21/20
# 22 faces

g
