# 3ds Max Wavefront OBJ Exporter v0.97b - (c)2007 guruware
# File Created: 02.08.2012 14:02:57

mtllib 92.mtl

#
# object Plane002
#

v  4.50000 -3.99950 -5.00000
v  4.50000 4.00050 -5.00000
v  4.50000 -3.99980 4.50000
v  4.50000 4.00020 4.50000
v  3.50000 4.00050 -5.00000
v  3.50000 -3.99950 3.50000
v  3.50000 4.00050 3.50000
v  3.50000 -3.99950 -5.00000
v  -5.00000 4.00050 3.50000
v  -5.00000 -3.99950 3.50000
v  5.00000 4.00020 5.50000
v  -5.00000 4.00050 -5.00000
v  5.00000 4.00050 -5.00000
v  -5.00000 4.00020 5.50000
v  5.00000 5.00020 5.75000
v  5.00000 5.00050 -5.00000
v  -5.00000 5.00050 -5.00000
v  -5.00000 5.00020 5.75000
v  5.00000 -3.99980 5.00000
v  5.00000 -3.99950 -5.00000
v  -5.00000 -3.99950 -5.00000
v  -5.00000 -3.99980 5.00000
v  5.00000 -4.99980 5.00000
v  5.00000 -4.99950 -5.00000
v  -5.00000 -4.99980 5.00000
v  -5.00000 -5.00000 5.00000
v  -5.00000 -4.00000 5.00000
v  -5.00000 -5.00000 -5.00000
v  -5.00000 -4.00000 -5.00000
v  -5.08000 -4.05862 4.50242
v  5.02000 -4.05862 4.50242
v  -5.08000 3.94138 4.50242
v  5.02000 3.94138 4.50242
# 33 vertices

vn 1.00000 0.00000 -0.00000
vn 0.70711 0.00000 0.70711
vn -0.70711 0.00000 -0.70711
vn -1.00000 0.00000 -0.00000
vn 0.00000 0.00000 -1.00000
vn 0.00000 -1.00000 -0.00000
vn 0.50338 -0.70229 0.50338
vn 0.61541 -0.78821 -0.00000
vn 0.00000 -0.78821 0.61541
vn 0.78821 0.61541 -0.00000
vn 0.63108 0.45108 0.63108
vn 0.00000 1.00000 -0.00000
vn 0.00000 0.61541 0.78821
vn 0.70711 0.70711 -0.00000
vn 0.57738 0.57729 0.57738
vn 0.00000 0.70711 0.70711
vn 0.00000 0.00000 1.00000
# 17 vertex normals

vt 0.95756 0.32014 0.00000
vt 0.69638 0.32014 0.00000
vt 0.95757 0.01000 0.00000
vt 0.69639 0.01000 0.00000
vt 0.63946 0.34483 0.00000
vt 0.90063 0.62232 0.00000
vt 0.63946 0.62232 0.00000
vt 0.90063 0.34483 0.00000
vt 0.36156 0.96878 0.00000
vt 0.36156 0.69129 0.00000
vt 0.62273 0.96878 0.00000
vt 0.62273 0.69129 0.00000
vt 0.01000 0.38604 0.00000
vt 0.33646 0.72883 0.00000
vt 0.01000 0.72883 0.00000
vt 0.33646 0.38604 0.00000
vt 0.01000 0.36095 0.00000
vt 0.01000 0.01000 0.00000
vt 0.33646 0.01000 0.00000
vt 0.33646 0.36095 0.00000
vt 0.63946 0.99000 0.00000
vt 0.63947 0.63905 0.00000
vt 0.67211 0.64721 0.00000
vt 0.67210 0.99000 0.00000
vt 0.68884 0.96552 0.00000
vt 0.72249 0.63905 0.00000
vt 0.72249 0.96552 0.00000
vt 0.68884 0.63905 0.00000
vt 0.68802 0.01000 0.00000
vt 0.68802 0.33646 0.00000
vt 0.36156 0.33646 0.00000
vt 0.36156 0.01000 0.00000
vt 0.73922 0.96552 0.00000
vt 0.73923 0.63905 0.00000
vt 0.77187 0.63905 0.00000
vt 0.77186 0.96552 0.00000
vt 0.78860 0.96552 0.00000
vt 0.82125 0.63905 0.00000
vt 0.82125 0.96552 0.00000
vt 0.78860 0.63905 0.00000
vt 0.87062 0.96552 0.00000
vt 0.83798 0.96552 0.00000
vt 0.87062 0.63905 0.00000
vt 0.83798 0.63905 0.00000
vt 0.62273 0.34483 0.00000
vt 0.62273 0.67456 0.00000
vt 0.36156 0.34483 0.00000
vt 0.36156 0.67456 0.00000
# 48 texture coords

g Plane002
usemtl default
s 65536
f 1/1/1 2/2/1 3/3/2 
f 3/3/1 2/2/2 4/4/2 
f 5/5/3 6/6/4 7/7/3 
f 8/8/3 6/6/4 5/5/4 
f 9/9/3 7/10/5 10/11/5 
f 6/12/5 10/11/3 7/10/3 
f 11/13/6 12/14/7 13/15/8 
f 12/14/7 11/13/6 14/16/9 
f 15/17/10 16/18/11 17/19/12 
f 17/19/13 18/20/12 15/17/11 
f 16/21/11 15/22/10 11/23/7 
f 16/21/7 11/23/10 13/24/8 
f 15/25/9 14/26/11 11/27/7 
f 14/26/11 15/25/9 18/28/13 
f 19/29/14 20/30/15 21/31/12 
f 21/31/16 22/32/12 19/29/15 
f 20/33/15 19/34/14 23/35/2 
f 20/33/2 23/35/14 24/36/1 
f 19/37/17 25/38/15 23/39/2 
f 25/38/15 19/37/17 22/40/16 
s 1
f 26/41/4 27/42/4 28/43/4 
f 29/44/4 28/43/4 27/42/4 
f 30/45/17 31/46/17 32/47/17 
f 33/48/17 32/47/17 31/46/17 
# 24 faces

