# 3ds Max Wavefront OBJ Exporter v0.97b - (c)2007 guruware
# File Created: 02.08.2012 16:49:22

mtllib 96.mtl

#
# object Box001
#

v  -65.00000 -5.00000 75.00000
v  -65.00000 -5.00000 -65.00000
v  75.00000 -5.00000 -65.00000
v  75.00000 -5.00000 75.00000
v  -65.00000 0.00000 75.00000
v  75.00000 0.00000 75.00000
v  75.00000 0.00000 -65.00000
v  -65.00000 0.00000 -65.00000
# 8 vertices

vn 0.00000 -1.00000 -0.00000
vn 0.00000 1.00000 -0.00000
vn 0.00000 0.00000 1.00000
vn 1.00000 0.00000 -0.00000
vn 0.00000 0.00000 -1.00000
vn -1.00000 0.00000 -0.00000
# 6 vertex normals

vt 0.01000 0.99000 0.00000
vt 0.01000 0.50356 0.00000
vt 0.49644 0.50356 0.00000
vt 0.49644 0.99000 0.00000
vt 0.01000 0.01000 0.00000
vt 0.49644 0.01000 0.00000
vt 0.49644 0.49644 0.00000
vt 0.01000 0.49644 0.00000
vt 0.52093 0.01000 0.00000
vt 0.52093 0.49644 0.00000
vt 0.50356 0.49644 0.00000
vt 0.50356 0.01000 0.00000
vt 0.61578 0.01000 0.00000
vt 0.61578 0.49644 0.00000
vt 0.59840 0.49644 0.00000
vt 0.59840 0.01000 0.00000
vt 0.55255 0.01000 0.00000
vt 0.55255 0.49644 0.00000
vt 0.53517 0.49644 0.00000
vt 0.53517 0.01000 0.00000
vt 0.58416 0.01000 0.00000
vt 0.58416 0.49644 0.00000
vt 0.56679 0.49644 0.00000
vt 0.56679 0.01000 0.00000
# 24 texture coords

g Box001
usemtl wire_085028177
s 2
f 1/1/1 2/2/1 3/3/1 
f 3/3/1 4/4/1 1/1/1 
s 4
f 5/5/2 6/6/2 7/7/2 
f 7/7/2 8/8/2 5/5/2 
s 8
f 1/9/3 4/10/3 6/11/3 
f 6/11/3 5/12/3 1/9/3 
s 16
f 4/13/4 3/14/4 7/15/4 
f 7/15/4 6/16/4 4/13/4 
s 32
f 3/17/5 2/18/5 8/19/5 
f 8/19/5 7/20/5 3/17/5 
s 64
f 2/21/6 1/22/6 5/23/6 
f 5/23/6 8/24/6 2/21/6 
# 12 faces

