# 3ds Max Wavefront OBJ Exporter v0.97b - (c)2007 guruware
# File Created: 10.08.2012 14:29:51

mtllib 97.mtl

#
# object Box001
#

v  -5.25000 -4.50000 -3.16650
v  -5.25000 -4.50000 -4.83350
v  -4.75000 -4.50000 -4.83350
v  -4.75000 -4.50000 -3.16650
v  -5.25000 1.50000 -3.16650
v  -4.75000 1.50000 -3.16650
v  -4.75000 1.50000 -4.83350
v  -5.25000 1.50000 -4.83350
v  -5.25000 -0.50000 5.09000
v  -5.75000 -0.50000 5.09000
v  -5.75000 -0.50000 -4.91000
v  -5.25000 -0.50000 -4.91000
v  -5.25000 0.50000 5.09000
v  -5.25000 0.50000 -4.91000
v  -5.75000 0.50000 -4.91000
v  -5.75000 0.50000 5.09000
v  -5.25000 -4.00000 5.09000
v  -5.75000 -4.00000 5.09000
v  -5.75000 -4.00000 -4.91000
v  -5.25000 -4.00000 -4.91000
v  -5.25000 -3.00000 5.09000
v  -5.25000 -3.00000 -4.91000
v  -5.75000 -3.00000 -4.91000
v  -5.75000 -3.00000 5.09000
v  -5.25000 -4.50000 -0.74450
v  -5.25000 -4.50000 -2.41150
v  -4.75000 -4.50000 -2.41150
v  -4.75000 -4.50000 -0.74450
v  -5.25000 1.50000 -0.74450
v  -4.75000 1.50000 -0.74450
v  -4.75000 1.50000 -2.41150
v  -5.25000 1.50000 -2.41150
v  -4.75019 1.66539 -4.00350
v  -4.75019 1.50000 -3.17000
v  -4.75019 1.50000 -4.83700
v  -4.75019 1.99616 -4.00350
v  -5.25019 1.50000 -4.83700
v  -5.25019 1.50000 -3.17000
v  -5.25019 1.99616 -4.00350
v  -5.25019 1.66539 -4.00350
v  -5.25000 -4.50000 1.75450
v  -5.25000 -4.50000 0.08750
v  -4.75000 -4.50000 0.08750
v  -4.75000 -4.50000 1.75450
v  -5.25000 1.50000 1.75450
v  -4.75000 1.50000 1.75450
v  -4.75000 1.50000 0.08750
v  -5.25000 1.50000 0.08750
v  -4.75019 1.66539 -1.57601
v  -4.75019 1.50000 -0.74251
v  -4.75019 1.50000 -2.40951
v  -4.75019 1.99616 -1.57601
v  -5.25019 1.50000 -2.40951
v  -5.25019 1.50000 -0.74251
v  -5.25019 1.99616 -1.57601
v  -5.25019 1.66539 -1.57601
v  -4.75019 1.66539 0.92432
v  -4.75019 1.50000 1.75782
v  -4.75019 1.50000 0.09082
v  -4.75019 1.99616 0.92432
v  -5.25019 1.50000 0.09082
v  -5.25019 1.50000 1.75782
v  -5.25019 1.99616 0.92432
v  -5.25019 1.66539 0.92432
v  -4.75019 1.66539 3.44019
v  -4.75019 1.50000 4.27369
v  -4.75019 1.50000 2.60669
v  -4.75019 1.99616 3.44019
v  -5.25019 1.50000 2.60669
v  -5.25019 1.50000 4.27369
v  -5.25019 1.99616 3.44019
v  -5.25019 1.66539 3.44019
v  -5.25000 -4.50000 4.25350
v  -5.25000 -4.50000 2.58650
v  -4.75000 -4.50000 2.58650
v  -4.75000 -4.50000 4.25350
v  -5.25000 1.50000 4.25350
v  -4.75000 1.50000 4.25350
v  -4.75000 1.50000 2.58650
v  -5.25000 1.50000 2.58650
v  -5.00000 -4.50000 5.09000
v  5.00000 -4.50000 5.09000
v  5.00000 -4.50000 -4.91000
v  -5.00000 -4.50000 -4.91000
# 84 vertices

vn 0.00000 -1.00000 -0.00000
vn 0.00000 1.00000 -0.00000
vn 0.00000 0.00000 1.00000
vn 1.00000 0.00000 -0.00000
vn 0.00000 0.00000 -1.00000
vn -1.00000 0.00000 -0.00000
vn -1.00000 0.00000 0.00000
vn 1.00000 -0.00000 -0.00000
vn 0.00000 0.85928 -0.51151
vn 0.00000 0.85928 0.51151
# 10 vertex normals

vt 0.97572 0.59166 0.00000
vt 0.90421 0.59166 0.00000
vt 0.90421 0.57021 0.00000
vt 0.97572 0.57021 0.00000
vt 0.29640 0.66872 0.00000
vt 0.29640 0.64727 0.00000
vt 0.36791 0.64727 0.00000
vt 0.36791 0.66872 0.00000
vt 0.73262 0.49114 0.00000
vt 0.73262 0.46969 0.00000
vt 0.99000 0.46969 0.00000
vt 0.99000 0.49114 0.00000
vt 0.44622 0.34015 0.00000
vt 0.44622 0.26864 0.00000
vt 0.70360 0.26864 0.00000
vt 0.70360 0.34015 0.00000
vt 0.01000 0.76925 0.00000
vt 0.01000 0.74780 0.00000
vt 0.26738 0.74780 0.00000
vt 0.26738 0.76925 0.00000
vt 0.01000 0.51773 0.00000
vt 0.01000 0.44622 0.00000
vt 0.26738 0.44622 0.00000
vt 0.26738 0.51773 0.00000
vt 0.87519 0.72161 0.00000
vt 0.87519 0.74306 0.00000
vt 0.44622 0.74306 0.00000
vt 0.44622 0.72161 0.00000
vt 0.44622 0.67114 0.00000
vt 0.87519 0.67114 0.00000
vt 0.87519 0.69259 0.00000
vt 0.44622 0.69259 0.00000
vt 0.87519 0.24687 0.00000
vt 0.44622 0.24687 0.00000
vt 0.44622 0.20398 0.00000
vt 0.87519 0.20398 0.00000
vt 0.53949 0.94491 0.00000
vt 0.53949 0.92347 0.00000
vt 0.58239 0.92347 0.00000
vt 0.58239 0.94491 0.00000
vt 0.87519 0.11756 0.00000
vt 0.44622 0.11756 0.00000
vt 0.44622 0.07466 0.00000
vt 0.87519 0.07466 0.00000
vt 0.82589 0.89445 0.00000
vt 0.82589 0.87300 0.00000
vt 0.86879 0.87300 0.00000
vt 0.86879 0.89445 0.00000
vt 0.87519 0.57021 0.00000
vt 0.87519 0.59166 0.00000
vt 0.44622 0.59166 0.00000
vt 0.44622 0.57021 0.00000
vt 0.44622 0.62068 0.00000
vt 0.87519 0.62068 0.00000
vt 0.87519 0.64213 0.00000
vt 0.44622 0.64213 0.00000
vt 0.87519 0.05290 0.00000
vt 0.44622 0.05290 0.00000
vt 0.44622 0.01000 0.00000
vt 0.87519 0.01000 0.00000
vt 0.11053 0.92064 0.00000
vt 0.11053 0.89919 0.00000
vt 0.15342 0.89919 0.00000
vt 0.15342 0.92064 0.00000
vt 0.87519 0.18222 0.00000
vt 0.44622 0.18222 0.00000
vt 0.44622 0.13932 0.00000
vt 0.87519 0.13932 0.00000
vt 0.44622 0.98796 0.00000
vt 0.44622 0.96651 0.00000
vt 0.48912 0.96651 0.00000
vt 0.48912 0.98796 0.00000
vt 0.97572 0.69259 0.00000
vt 0.90421 0.69259 0.00000
vt 0.90421 0.67114 0.00000
vt 0.97572 0.67114 0.00000
vt 0.29640 0.76925 0.00000
vt 0.29640 0.74780 0.00000
vt 0.36791 0.74780 0.00000
vt 0.36791 0.76925 0.00000
vt 0.44622 0.84399 0.00000
vt 0.44622 0.82254 0.00000
vt 0.70360 0.82254 0.00000
vt 0.70360 0.84399 0.00000
vt 0.44622 0.44067 0.00000
vt 0.44622 0.36916 0.00000
vt 0.70360 0.36916 0.00000
vt 0.70360 0.44067 0.00000
vt 0.01000 0.81971 0.00000
vt 0.01000 0.79826 0.00000
vt 0.26738 0.79826 0.00000
vt 0.26738 0.81971 0.00000
vt 0.01000 0.61826 0.00000
vt 0.01000 0.54675 0.00000
vt 0.26738 0.54675 0.00000
vt 0.26738 0.61826 0.00000
vt 0.76837 0.88719 0.00000
vt 0.80413 0.89429 0.00000
vt 0.73262 0.89429 0.00000
vt 0.76837 0.87300 0.00000
vt 0.89695 0.09611 0.00000
vt 0.89695 0.07466 0.00000
vt 0.96846 0.07466 0.00000
vt 0.96846 0.09611 0.00000
vt 0.93271 0.16077 0.00000
vt 0.93271 0.13932 0.00000
vt 0.96846 0.13932 0.00000
vt 0.96846 0.16077 0.00000
vt 0.89695 0.16077 0.00000
vt 0.89695 0.13932 0.00000
vt 0.73262 0.54144 0.00000
vt 0.76837 0.53434 0.00000
vt 0.80413 0.54144 0.00000
vt 0.76837 0.52015 0.00000
vt 0.36791 0.81971 0.00000
vt 0.29640 0.81971 0.00000
vt 0.29640 0.79826 0.00000
vt 0.36791 0.79826 0.00000
vt 0.29640 0.87018 0.00000
vt 0.29640 0.84873 0.00000
vt 0.36791 0.84873 0.00000
vt 0.36791 0.87018 0.00000
vt 0.01000 0.87018 0.00000
vt 0.01000 0.84873 0.00000
vt 0.26738 0.84873 0.00000
vt 0.26738 0.87018 0.00000
vt 0.01000 0.71878 0.00000
vt 0.01000 0.64727 0.00000
vt 0.26738 0.64727 0.00000
vt 0.26738 0.71878 0.00000
vt 0.44622 0.89445 0.00000
vt 0.44622 0.87300 0.00000
vt 0.70360 0.87300 0.00000
vt 0.70360 0.89445 0.00000
vt 0.44622 0.54120 0.00000
vt 0.44622 0.46969 0.00000
vt 0.70360 0.46969 0.00000
vt 0.70360 0.54120 0.00000
vt 0.48198 0.93766 0.00000
vt 0.51773 0.94475 0.00000
vt 0.44622 0.94475 0.00000
vt 0.48198 0.92347 0.00000
vt 0.89695 0.03145 0.00000
vt 0.89695 0.01000 0.00000
vt 0.96846 0.01000 0.00000
vt 0.96846 0.03145 0.00000
vt 0.93271 0.22543 0.00000
vt 0.93271 0.20398 0.00000
vt 0.96846 0.20398 0.00000
vt 0.96846 0.22543 0.00000
vt 0.89695 0.22543 0.00000
vt 0.89695 0.20398 0.00000
vt 0.29640 0.51797 0.00000
vt 0.33215 0.51088 0.00000
vt 0.36791 0.51797 0.00000
vt 0.33215 0.49669 0.00000
vt 0.33215 0.61140 0.00000
vt 0.36791 0.61850 0.00000
vt 0.29640 0.61850 0.00000
vt 0.33215 0.59721 0.00000
vt 0.29640 0.56820 0.00000
vt 0.29640 0.54675 0.00000
vt 0.36791 0.54675 0.00000
vt 0.36791 0.56820 0.00000
vt 0.33215 0.46767 0.00000
vt 0.33215 0.44622 0.00000
vt 0.36791 0.44622 0.00000
vt 0.36791 0.46767 0.00000
vt 0.29640 0.46767 0.00000
vt 0.29640 0.44622 0.00000
vt 0.83314 0.84382 0.00000
vt 0.86890 0.83673 0.00000
vt 0.90465 0.84382 0.00000
vt 0.86890 0.82254 0.00000
vt 0.04575 0.96385 0.00000
vt 0.08151 0.97094 0.00000
vt 0.01000 0.97094 0.00000
vt 0.04575 0.94966 0.00000
vt 0.90421 0.74306 0.00000
vt 0.90421 0.72161 0.00000
vt 0.97572 0.72161 0.00000
vt 0.97572 0.74306 0.00000
vt 0.93996 0.64213 0.00000
vt 0.93996 0.62068 0.00000
vt 0.97572 0.62068 0.00000
vt 0.97572 0.64213 0.00000
vt 0.90421 0.64213 0.00000
vt 0.90421 0.62068 0.00000
vt 0.29640 0.71902 0.00000
vt 0.33215 0.71193 0.00000
vt 0.36791 0.71902 0.00000
vt 0.33215 0.69774 0.00000
vt 0.80413 0.84399 0.00000
vt 0.73262 0.84399 0.00000
vt 0.73262 0.82254 0.00000
vt 0.80413 0.82254 0.00000
vt 0.01000 0.92064 0.00000
vt 0.01000 0.89919 0.00000
vt 0.08151 0.89919 0.00000
vt 0.08151 0.92064 0.00000
vt 0.44622 0.79352 0.00000
vt 0.44622 0.77207 0.00000
vt 0.70360 0.77207 0.00000
vt 0.70360 0.79352 0.00000
vt 0.73262 0.44067 0.00000
vt 0.73262 0.36916 0.00000
vt 0.99000 0.36916 0.00000
vt 0.99000 0.44067 0.00000
vt 0.73262 0.79352 0.00000
vt 0.73262 0.77207 0.00000
vt 0.99000 0.77207 0.00000
vt 0.99000 0.79352 0.00000
vt 0.73262 0.34015 0.00000
vt 0.73262 0.26864 0.00000
vt 0.99000 0.26864 0.00000
vt 0.99000 0.34015 0.00000
vt 0.01000 0.01000 0.00000
vt 0.43897 0.01000 0.00000
vt 0.43897 0.43897 0.00000
vt 0.01000 0.43897 0.00000
# 220 texture coords

g Box001
usemtl wire_026177026
s 2
f 1/1/1 2/2/1 3/3/1 
f 3/3/1 4/4/1 1/1/1 
s 4
f 5/5/2 6/6/2 7/7/2 
f 7/7/2 8/8/2 5/5/2 
s 8
f 1/9/3 4/10/3 6/11/3 
f 6/11/3 5/12/3 1/9/3 
s 16
f 4/13/4 3/14/4 7/15/4 
f 7/15/4 6/16/4 4/13/4 
s 32
f 3/17/5 2/18/5 8/19/5 
f 8/19/5 7/20/5 3/17/5 
s 64
f 2/21/6 1/22/6 5/23/6 
f 5/23/6 8/24/6 2/21/6 
s 2
f 9/25/1 10/26/1 11/27/1 
f 11/27/1 12/28/1 9/25/1 
s 4
f 13/29/2 14/30/2 15/31/2 
f 15/31/2 16/32/2 13/29/2 
s 8
f 9/33/4 12/34/4 14/35/4 
f 14/35/4 13/36/4 9/33/4 
s 16
f 12/37/5 11/38/5 15/39/5 
f 15/39/5 14/40/5 12/37/5 
s 32
f 11/41/7 10/42/7 16/43/7 
f 16/43/7 15/44/7 11/41/7 
s 64
f 10/45/3 9/46/3 13/47/3 
f 13/47/3 16/48/3 10/45/3 
s 2
f 17/49/1 18/50/1 19/51/1 
f 19/51/1 20/52/1 17/49/1 
s 4
f 21/53/2 22/54/2 23/55/2 
f 23/55/2 24/56/2 21/53/2 
s 8
f 17/57/4 20/58/4 22/59/4 
f 22/59/4 21/60/4 17/57/4 
s 16
f 20/61/5 19/62/5 23/63/5 
f 23/63/5 22/64/5 20/61/5 
s 32
f 19/65/7 18/66/7 24/67/7 
f 24/67/7 23/68/7 19/65/7 
s 64
f 18/69/3 17/70/3 21/71/3 
f 21/71/3 24/72/3 18/69/3 
s 2
f 25/73/1 26/74/1 27/75/1 
f 27/75/1 28/76/1 25/73/1 
s 4
f 29/77/2 30/78/2 31/79/2 
f 31/79/2 32/80/2 29/77/2 
s 8
f 25/81/3 28/82/3 30/83/3 
f 30/83/3 29/84/3 25/81/3 
s 16
f 28/85/4 27/86/4 31/87/4 
f 31/87/4 30/88/4 28/85/4 
s 32
f 27/89/5 26/90/5 32/91/5 
f 32/91/5 31/92/5 27/89/5 
s 64
f 26/93/6 25/94/6 29/95/6 
f 29/95/6 32/96/6 26/93/6 
s 1
f 33/97/8 34/98/8 35/99/8 
f 33/97/8 35/99/8 36/100/4 
f 33/97/8 36/100/4 34/98/8 
s 2
f 37/101/1 35/102/1 34/103/1 
f 34/103/1 38/104/1 37/101/1 
s 4
f 39/105/9 36/106/9 35/107/9 
f 35/107/9 37/108/9 39/105/9 
s 8
f 38/109/10 34/110/10 36/106/10 
f 36/106/10 39/105/10 38/109/10 
s 1
f 38/111/7 40/112/7 37/113/7 
f 37/113/7 40/112/7 39/114/7 
f 39/114/7 40/112/7 38/111/7 
s 2
f 41/115/1 42/116/1 43/117/1 
f 43/117/1 44/118/1 41/115/1 
s 4
f 45/119/2 46/120/2 47/121/2 
f 47/121/2 48/122/2 45/119/2 
s 8
f 41/123/3 44/124/3 46/125/3 
f 46/125/3 45/126/3 41/123/3 
s 16
f 44/127/4 43/128/4 47/129/4 
f 47/129/4 46/130/4 44/127/4 
s 32
f 43/131/5 42/132/5 48/133/5 
f 48/133/5 47/134/5 43/131/5 
s 64
f 42/135/6 41/136/6 45/137/6 
f 45/137/6 48/138/6 42/135/6 
s 1
f 49/139/8 50/140/8 51/141/8 
f 49/139/8 51/141/8 52/142/4 
f 49/139/8 52/142/4 50/140/8 
s 2
f 53/143/1 51/144/1 50/145/1 
f 50/145/1 54/146/1 53/143/1 
s 4
f 55/147/9 52/148/9 51/149/9 
f 51/149/9 53/150/9 55/147/9 
s 8
f 54/151/10 50/152/10 52/148/10 
f 52/148/10 55/147/10 54/151/10 
s 1
f 54/153/7 56/154/7 53/155/7 
f 53/155/7 56/154/7 55/156/7 
f 55/156/7 56/154/7 54/153/7 
f 57/157/4 58/158/4 59/159/4 
f 57/157/4 59/159/4 60/160/4 
f 57/157/4 60/160/4 58/158/4 
s 2
f 61/161/1 59/162/1 58/163/1 
f 58/163/1 62/164/1 61/161/1 
s 4
f 63/165/9 60/166/9 59/167/9 
f 59/167/9 61/168/9 63/165/9 
s 8
f 62/169/10 58/170/10 60/166/10 
f 60/166/10 63/165/10 62/169/10 
s 1
f 62/171/7 64/172/7 61/173/7 
f 61/173/7 64/172/7 63/174/7 
f 63/174/7 64/172/7 62/171/7 
f 65/175/4 66/176/4 67/177/4 
f 65/175/4 67/177/4 68/178/4 
f 65/175/4 68/178/4 66/176/4 
s 2
f 69/179/1 67/180/1 66/181/1 
f 66/181/1 70/182/1 69/179/1 
s 4
f 71/183/9 68/184/9 67/185/9 
f 67/185/9 69/186/9 71/183/9 
s 8
f 70/187/10 66/188/10 68/184/10 
f 68/184/10 71/183/10 70/187/10 
s 1
f 70/189/7 72/190/7 69/191/7 
f 69/191/7 72/190/7 71/192/7 
f 71/192/7 72/190/7 70/189/7 
s 2
f 73/193/1 74/194/1 75/195/1 
f 75/195/1 76/196/1 73/193/1 
s 4
f 77/197/2 78/198/2 79/199/2 
f 79/199/2 80/200/2 77/197/2 
s 8
f 73/201/3 76/202/3 78/203/3 
f 78/203/3 77/204/3 73/201/3 
s 16
f 76/205/4 75/206/4 79/207/4 
f 79/207/4 78/208/4 76/205/4 
s 32
f 75/209/5 74/210/5 80/211/5 
f 80/211/5 79/212/5 75/209/5 
s 64
f 74/213/6 73/214/6 77/215/6 
f 77/215/6 80/216/6 74/213/6 
s 1
f 81/217/2 82/218/2 83/219/2 
f 83/219/2 84/220/2 81/217/2 
# 122 faces

